<mxfile host="app.diagrams.net" modified="2021-08-30T08:56:55.859Z" agent="5.0 (Macintosh; Intel Mac OS X 10_15_7) AppleWebKit/537.36 (KHTML, like Gecko) Chrome/92.0.4515.159 Safari/537.36" etag="KLezQBwsCRXc4qbtxgmK" version="14.9.9" type="github">
  <diagram id="R2lEEEUBdFMjLlhIrx00" name="Page-1">
    <mxGraphModel dx="2916" dy="1075" grid="1" gridSize="10" guides="1" tooltips="1" connect="1" arrows="1" fold="1" page="1" pageScale="1" pageWidth="850" pageHeight="1100" math="0" shadow="0" extFonts="Permanent Marker^https://fonts.googleapis.com/css?family=Permanent+Marker">
      <root>
        <mxCell id="0" />
        <mxCell id="1" parent="0" />
        <mxCell id="C-vyLk0tnHw3VtMMgP7b-12" value="" style="edgeStyle=entityRelationEdgeStyle;endArrow=ERzeroToMany;startArrow=ERone;endFill=1;startFill=0;" parent="1" target="C-vyLk0tnHw3VtMMgP7b-17" edge="1">
          <mxGeometry width="100" height="100" relative="1" as="geometry">
            <mxPoint x="700" y="165" as="sourcePoint" />
            <mxPoint x="460" y="205" as="targetPoint" />
          </mxGeometry>
        </mxCell>
        <mxCell id="tAP2XFxNAOqR4f6Jvjxz-1" value="`decision_flow_base_pre`" style="shape=table;startSize=30;container=1;collapsible=1;childLayout=tableLayout;fixedRows=1;rowLines=0;fontStyle=1;align=center;resizeLast=1;" vertex="1" parent="1">
          <mxGeometry x="-490" y="80" width="450" height="880" as="geometry" />
        </mxCell>
        <mxCell id="tAP2XFxNAOqR4f6Jvjxz-2" value="" style="shape=partialRectangle;collapsible=0;dropTarget=0;pointerEvents=0;fillColor=none;points=[[0,0.5],[1,0.5]];portConstraint=eastwest;top=0;left=0;right=0;bottom=0;" vertex="1" parent="tAP2XFxNAOqR4f6Jvjxz-1">
          <mxGeometry y="30" width="450" height="30" as="geometry" />
        </mxCell>
        <mxCell id="tAP2XFxNAOqR4f6Jvjxz-3" value="PK" style="shape=partialRectangle;overflow=hidden;connectable=0;fillColor=none;top=0;left=0;bottom=0;right=0;" vertex="1" parent="tAP2XFxNAOqR4f6Jvjxz-2">
          <mxGeometry width="30" height="30" as="geometry" />
        </mxCell>
        <mxCell id="tAP2XFxNAOqR4f6Jvjxz-4" value="`id` bigint(20) NOT NULL AUTO_INCREMENT" style="shape=partialRectangle;overflow=hidden;connectable=0;fillColor=none;top=0;left=0;bottom=0;right=0;align=left;spacingLeft=6;" vertex="1" parent="tAP2XFxNAOqR4f6Jvjxz-2">
          <mxGeometry x="30" width="420" height="30" as="geometry" />
        </mxCell>
        <mxCell id="tAP2XFxNAOqR4f6Jvjxz-5" value="" style="shape=partialRectangle;collapsible=0;dropTarget=0;pointerEvents=0;fillColor=none;points=[[0,0.5],[1,0.5]];portConstraint=eastwest;top=0;left=0;right=0;bottom=0;" vertex="1" parent="tAP2XFxNAOqR4f6Jvjxz-1">
          <mxGeometry y="60" width="450" height="30" as="geometry" />
        </mxCell>
        <mxCell id="tAP2XFxNAOqR4f6Jvjxz-6" value="" style="shape=partialRectangle;overflow=hidden;connectable=0;fillColor=none;top=0;left=0;bottom=0;right=0;" vertex="1" parent="tAP2XFxNAOqR4f6Jvjxz-5">
          <mxGeometry width="30" height="30" as="geometry" />
        </mxCell>
        <mxCell id="tAP2XFxNAOqR4f6Jvjxz-7" value="`type` varchar(40) NOT NULL COMMENT &#39;流程类型&#39;" style="shape=partialRectangle;overflow=hidden;connectable=0;fillColor=none;top=0;left=0;bottom=0;right=0;align=left;spacingLeft=6;" vertex="1" parent="tAP2XFxNAOqR4f6Jvjxz-5">
          <mxGeometry x="30" width="420" height="30" as="geometry" />
        </mxCell>
        <mxCell id="tAP2XFxNAOqR4f6Jvjxz-8" value="" style="shape=partialRectangle;collapsible=0;dropTarget=0;pointerEvents=0;fillColor=none;points=[[0,0.5],[1,0.5]];portConstraint=eastwest;top=0;left=0;right=0;bottom=0;" vertex="1" parent="tAP2XFxNAOqR4f6Jvjxz-1">
          <mxGeometry y="90" width="450" height="30" as="geometry" />
        </mxCell>
        <mxCell id="tAP2XFxNAOqR4f6Jvjxz-9" value="" style="shape=partialRectangle;overflow=hidden;connectable=0;fillColor=none;top=0;left=0;bottom=0;right=0;" vertex="1" parent="tAP2XFxNAOqR4f6Jvjxz-8">
          <mxGeometry width="30" height="30" as="geometry" />
        </mxCell>
        <mxCell id="tAP2XFxNAOqR4f6Jvjxz-10" value="`group_code` varchar(40) NOT NULL COMMENT &#39;流程组编码&#39;" style="shape=partialRectangle;overflow=hidden;connectable=0;fillColor=none;top=0;left=0;bottom=0;right=0;align=left;spacingLeft=6;" vertex="1" parent="tAP2XFxNAOqR4f6Jvjxz-8">
          <mxGeometry x="30" width="420" height="30" as="geometry" />
        </mxCell>
        <mxCell id="tAP2XFxNAOqR4f6Jvjxz-11" value="" style="shape=partialRectangle;collapsible=0;dropTarget=0;pointerEvents=0;fillColor=none;points=[[0,0.5],[1,0.5]];portConstraint=eastwest;top=0;left=0;right=0;bottom=0;" vertex="1" parent="tAP2XFxNAOqR4f6Jvjxz-1">
          <mxGeometry y="120" width="450" height="30" as="geometry" />
        </mxCell>
        <mxCell id="tAP2XFxNAOqR4f6Jvjxz-12" value="" style="shape=partialRectangle;overflow=hidden;connectable=0;fillColor=none;top=0;left=0;bottom=0;right=0;" vertex="1" parent="tAP2XFxNAOqR4f6Jvjxz-11">
          <mxGeometry width="30" height="30" as="geometry" />
        </mxCell>
        <mxCell id="tAP2XFxNAOqR4f6Jvjxz-13" value="`decision_flow_key` varchar(255) NOT NULL COMMENT &#39;流程编号&#39;" style="shape=partialRectangle;overflow=hidden;connectable=0;fillColor=none;top=0;left=0;bottom=0;right=0;align=left;spacingLeft=6;" vertex="1" parent="tAP2XFxNAOqR4f6Jvjxz-11">
          <mxGeometry x="30" width="420" height="30" as="geometry" />
        </mxCell>
        <mxCell id="tAP2XFxNAOqR4f6Jvjxz-14" value="" style="shape=partialRectangle;collapsible=0;dropTarget=0;pointerEvents=0;fillColor=none;points=[[0,0.5],[1,0.5]];portConstraint=eastwest;top=0;left=0;right=0;bottom=0;" vertex="1" parent="tAP2XFxNAOqR4f6Jvjxz-1">
          <mxGeometry y="150" width="450" height="30" as="geometry" />
        </mxCell>
        <mxCell id="tAP2XFxNAOqR4f6Jvjxz-15" value="" style="shape=partialRectangle;overflow=hidden;connectable=0;fillColor=none;top=0;left=0;bottom=0;right=0;" vertex="1" parent="tAP2XFxNAOqR4f6Jvjxz-14">
          <mxGeometry width="30" height="30" as="geometry" />
        </mxCell>
        <mxCell id="tAP2XFxNAOqR4f6Jvjxz-16" value="`name` varchar(200) NOT NULL COMMENT &#39;流程名称&#39;" style="shape=partialRectangle;overflow=hidden;connectable=0;fillColor=none;top=0;left=0;bottom=0;right=0;align=left;spacingLeft=6;" vertex="1" parent="tAP2XFxNAOqR4f6Jvjxz-14">
          <mxGeometry x="30" width="420" height="30" as="geometry" />
        </mxCell>
        <mxCell id="tAP2XFxNAOqR4f6Jvjxz-17" value="" style="shape=partialRectangle;collapsible=0;dropTarget=0;pointerEvents=0;fillColor=none;points=[[0,0.5],[1,0.5]];portConstraint=eastwest;top=0;left=0;right=0;bottom=0;" vertex="1" parent="tAP2XFxNAOqR4f6Jvjxz-1">
          <mxGeometry y="180" width="450" height="30" as="geometry" />
        </mxCell>
        <mxCell id="tAP2XFxNAOqR4f6Jvjxz-18" value="" style="shape=partialRectangle;overflow=hidden;connectable=0;fillColor=none;top=0;left=0;bottom=0;right=0;" vertex="1" parent="tAP2XFxNAOqR4f6Jvjxz-17">
          <mxGeometry width="30" height="30" as="geometry" />
        </mxCell>
        <mxCell id="tAP2XFxNAOqR4f6Jvjxz-19" value="`remark` varchar(255) DEFAULT NULL COMMENT &#39;流程描述&#39;" style="shape=partialRectangle;overflow=hidden;connectable=0;fillColor=none;top=0;left=0;bottom=0;right=0;align=left;spacingLeft=6;" vertex="1" parent="tAP2XFxNAOqR4f6Jvjxz-17">
          <mxGeometry x="30" width="420" height="30" as="geometry" />
        </mxCell>
        <mxCell id="tAP2XFxNAOqR4f6Jvjxz-20" value="" style="shape=partialRectangle;collapsible=0;dropTarget=0;pointerEvents=0;fillColor=none;points=[[0,0.5],[1,0.5]];portConstraint=eastwest;top=0;left=0;right=0;bottom=0;" vertex="1" parent="tAP2XFxNAOqR4f6Jvjxz-1">
          <mxGeometry y="210" width="450" height="30" as="geometry" />
        </mxCell>
        <mxCell id="tAP2XFxNAOqR4f6Jvjxz-21" value="" style="shape=partialRectangle;overflow=hidden;connectable=0;fillColor=none;top=0;left=0;bottom=0;right=0;" vertex="1" parent="tAP2XFxNAOqR4f6Jvjxz-20">
          <mxGeometry width="30" height="30" as="geometry" />
        </mxCell>
        <mxCell id="tAP2XFxNAOqR4f6Jvjxz-22" value="`biz_app` varchar(255) NOT NULL COMMENT &#39;执行业务系统&#39;" style="shape=partialRectangle;overflow=hidden;connectable=0;fillColor=none;top=0;left=0;bottom=0;right=0;align=left;spacingLeft=6;" vertex="1" parent="tAP2XFxNAOqR4f6Jvjxz-20">
          <mxGeometry x="30" width="420" height="30" as="geometry" />
        </mxCell>
        <mxCell id="tAP2XFxNAOqR4f6Jvjxz-23" value="" style="shape=partialRectangle;collapsible=0;dropTarget=0;pointerEvents=0;fillColor=none;points=[[0,0.5],[1,0.5]];portConstraint=eastwest;top=0;left=0;right=0;bottom=0;" vertex="1" parent="tAP2XFxNAOqR4f6Jvjxz-1">
          <mxGeometry y="240" width="450" height="30" as="geometry" />
        </mxCell>
        <mxCell id="tAP2XFxNAOqR4f6Jvjxz-24" value="" style="shape=partialRectangle;overflow=hidden;connectable=0;fillColor=none;top=0;left=0;bottom=0;right=0;" vertex="1" parent="tAP2XFxNAOqR4f6Jvjxz-23">
          <mxGeometry width="30" height="30" as="geometry" />
        </mxCell>
        <mxCell id="tAP2XFxNAOqR4f6Jvjxz-25" value="`tags` varchar(4000) DEFAULT NULL COMMENT &#39;流程标签&#39;" style="shape=partialRectangle;overflow=hidden;connectable=0;fillColor=none;top=0;left=0;bottom=0;right=0;align=left;spacingLeft=6;" vertex="1" parent="tAP2XFxNAOqR4f6Jvjxz-23">
          <mxGeometry x="30" width="420" height="30" as="geometry" />
        </mxCell>
        <mxCell id="tAP2XFxNAOqR4f6Jvjxz-26" value="" style="shape=partialRectangle;collapsible=0;dropTarget=0;pointerEvents=0;fillColor=none;points=[[0,0.5],[1,0.5]];portConstraint=eastwest;top=0;left=0;right=0;bottom=0;" vertex="1" parent="tAP2XFxNAOqR4f6Jvjxz-1">
          <mxGeometry y="270" width="450" height="30" as="geometry" />
        </mxCell>
        <mxCell id="tAP2XFxNAOqR4f6Jvjxz-27" value="" style="shape=partialRectangle;overflow=hidden;connectable=0;fillColor=none;top=0;left=0;bottom=0;right=0;" vertex="1" parent="tAP2XFxNAOqR4f6Jvjxz-26">
          <mxGeometry width="30" height="30" as="geometry" />
        </mxCell>
        <mxCell id="tAP2XFxNAOqR4f6Jvjxz-28" value="`deleted` tinyint(1) NOT NULL DEFAULT &#39;0&#39; COMMENT &#39;是否删除&#39;" style="shape=partialRectangle;overflow=hidden;connectable=0;fillColor=none;top=0;left=0;bottom=0;right=0;align=left;spacingLeft=6;" vertex="1" parent="tAP2XFxNAOqR4f6Jvjxz-26">
          <mxGeometry x="30" width="420" height="30" as="geometry" />
        </mxCell>
        <mxCell id="tAP2XFxNAOqR4f6Jvjxz-29" value="" style="shape=partialRectangle;collapsible=0;dropTarget=0;pointerEvents=0;fillColor=none;points=[[0,0.5],[1,0.5]];portConstraint=eastwest;top=0;left=0;right=0;bottom=0;" vertex="1" parent="tAP2XFxNAOqR4f6Jvjxz-1">
          <mxGeometry y="300" width="450" height="30" as="geometry" />
        </mxCell>
        <mxCell id="tAP2XFxNAOqR4f6Jvjxz-30" value="" style="shape=partialRectangle;overflow=hidden;connectable=0;fillColor=none;top=0;left=0;bottom=0;right=0;" vertex="1" parent="tAP2XFxNAOqR4f6Jvjxz-29">
          <mxGeometry width="30" height="30" as="geometry" />
        </mxCell>
        <mxCell id="tAP2XFxNAOqR4f6Jvjxz-31" value="`created_by` varchar(255) NOT NULL COMMENT &#39;创建人&#39;" style="shape=partialRectangle;overflow=hidden;connectable=0;fillColor=none;top=0;left=0;bottom=0;right=0;align=left;spacingLeft=6;" vertex="1" parent="tAP2XFxNAOqR4f6Jvjxz-29">
          <mxGeometry x="30" width="420" height="30" as="geometry" />
        </mxCell>
        <mxCell id="tAP2XFxNAOqR4f6Jvjxz-32" value="" style="shape=partialRectangle;collapsible=0;dropTarget=0;pointerEvents=0;fillColor=none;points=[[0,0.5],[1,0.5]];portConstraint=eastwest;top=0;left=0;right=0;bottom=0;" vertex="1" parent="tAP2XFxNAOqR4f6Jvjxz-1">
          <mxGeometry y="330" width="450" height="30" as="geometry" />
        </mxCell>
        <mxCell id="tAP2XFxNAOqR4f6Jvjxz-33" value="" style="shape=partialRectangle;overflow=hidden;connectable=0;fillColor=none;top=0;left=0;bottom=0;right=0;" vertex="1" parent="tAP2XFxNAOqR4f6Jvjxz-32">
          <mxGeometry width="30" height="30" as="geometry" />
        </mxCell>
        <mxCell id="tAP2XFxNAOqR4f6Jvjxz-34" value="`updated_by` varchar(255) DEFAULT NULL COMMENT &#39;更新人&#39;" style="shape=partialRectangle;overflow=hidden;connectable=0;fillColor=none;top=0;left=0;bottom=0;right=0;align=left;spacingLeft=6;" vertex="1" parent="tAP2XFxNAOqR4f6Jvjxz-32">
          <mxGeometry x="30" width="420" height="30" as="geometry" />
        </mxCell>
        <mxCell id="tAP2XFxNAOqR4f6Jvjxz-35" value="" style="shape=partialRectangle;collapsible=0;dropTarget=0;pointerEvents=0;fillColor=none;points=[[0,0.5],[1,0.5]];portConstraint=eastwest;top=0;left=0;right=0;bottom=0;" vertex="1" parent="tAP2XFxNAOqR4f6Jvjxz-1">
          <mxGeometry y="360" width="450" height="30" as="geometry" />
        </mxCell>
        <mxCell id="tAP2XFxNAOqR4f6Jvjxz-36" value="" style="shape=partialRectangle;overflow=hidden;connectable=0;fillColor=none;top=0;left=0;bottom=0;right=0;" vertex="1" parent="tAP2XFxNAOqR4f6Jvjxz-35">
          <mxGeometry width="30" height="30" as="geometry" />
        </mxCell>
        <mxCell id="tAP2XFxNAOqR4f6Jvjxz-37" value="`created_at` datetime NOT NULL DEFAULT CURRENT_TIMESTAMP" style="shape=partialRectangle;overflow=hidden;connectable=0;fillColor=none;top=0;left=0;bottom=0;right=0;align=left;spacingLeft=6;" vertex="1" parent="tAP2XFxNAOqR4f6Jvjxz-35">
          <mxGeometry x="30" width="420" height="30" as="geometry" />
        </mxCell>
        <mxCell id="tAP2XFxNAOqR4f6Jvjxz-38" value="" style="shape=partialRectangle;collapsible=0;dropTarget=0;pointerEvents=0;fillColor=none;points=[[0,0.5],[1,0.5]];portConstraint=eastwest;top=0;left=0;right=0;bottom=0;" vertex="1" parent="tAP2XFxNAOqR4f6Jvjxz-1">
          <mxGeometry y="390" width="450" height="30" as="geometry" />
        </mxCell>
        <mxCell id="tAP2XFxNAOqR4f6Jvjxz-39" value="" style="shape=partialRectangle;overflow=hidden;connectable=0;fillColor=none;top=0;left=0;bottom=0;right=0;" vertex="1" parent="tAP2XFxNAOqR4f6Jvjxz-38">
          <mxGeometry width="30" height="30" as="geometry" />
        </mxCell>
        <mxCell id="tAP2XFxNAOqR4f6Jvjxz-40" value="`updated_at` datetime NOT NULL DEFAULT CURRENT_TIMESTAMP ON UPDATE CURRENT_TIMESTAMP" style="shape=partialRectangle;overflow=hidden;connectable=0;fillColor=none;top=0;left=0;bottom=0;right=0;align=left;spacingLeft=6;" vertex="1" parent="tAP2XFxNAOqR4f6Jvjxz-38">
          <mxGeometry x="30" width="420" height="30" as="geometry" />
        </mxCell>
        <mxCell id="tAP2XFxNAOqR4f6Jvjxz-41" value="" style="shape=partialRectangle;collapsible=0;dropTarget=0;pointerEvents=0;fillColor=none;points=[[0,0.5],[1,0.5]];portConstraint=eastwest;top=0;left=0;right=0;bottom=0;" vertex="1" parent="tAP2XFxNAOqR4f6Jvjxz-1">
          <mxGeometry y="420" width="450" height="30" as="geometry" />
        </mxCell>
        <mxCell id="tAP2XFxNAOqR4f6Jvjxz-42" value="" style="shape=partialRectangle;overflow=hidden;connectable=0;fillColor=none;top=0;left=0;bottom=0;right=0;" vertex="1" parent="tAP2XFxNAOqR4f6Jvjxz-41">
          <mxGeometry width="30" height="30" as="geometry" />
        </mxCell>
        <mxCell id="tAP2XFxNAOqR4f6Jvjxz-43" value="`status` tinyint(1) DEFAULT &#39;0&#39; COMMENT &#39;状态(0停用，1启用)&#39;" style="shape=partialRectangle;overflow=hidden;connectable=0;fillColor=none;top=0;left=0;bottom=0;right=0;align=left;spacingLeft=6;" vertex="1" parent="tAP2XFxNAOqR4f6Jvjxz-41">
          <mxGeometry x="30" width="420" height="30" as="geometry" />
        </mxCell>
        <mxCell id="tAP2XFxNAOqR4f6Jvjxz-44" value="" style="shape=partialRectangle;collapsible=0;dropTarget=0;pointerEvents=0;fillColor=none;points=[[0,0.5],[1,0.5]];portConstraint=eastwest;top=0;left=0;right=0;bottom=0;" vertex="1" parent="tAP2XFxNAOqR4f6Jvjxz-1">
          <mxGeometry y="450" width="450" height="30" as="geometry" />
        </mxCell>
        <mxCell id="tAP2XFxNAOqR4f6Jvjxz-45" value="" style="shape=partialRectangle;overflow=hidden;connectable=0;fillColor=none;top=0;left=0;bottom=0;right=0;" vertex="1" parent="tAP2XFxNAOqR4f6Jvjxz-44">
          <mxGeometry width="30" height="30" as="geometry" />
        </mxCell>
        <mxCell id="tAP2XFxNAOqR4f6Jvjxz-46" value="`version_strategy` varchar(40) DEFAULT NULL COMMENT &#39;版本策略&#39;" style="shape=partialRectangle;overflow=hidden;connectable=0;fillColor=none;top=0;left=0;bottom=0;right=0;align=left;spacingLeft=6;" vertex="1" parent="tAP2XFxNAOqR4f6Jvjxz-44">
          <mxGeometry x="30" width="420" height="30" as="geometry" />
        </mxCell>
        <mxCell id="tAP2XFxNAOqR4f6Jvjxz-47" value="" style="shape=partialRectangle;collapsible=0;dropTarget=0;pointerEvents=0;fillColor=none;points=[[0,0.5],[1,0.5]];portConstraint=eastwest;top=0;left=0;right=0;bottom=0;" vertex="1" parent="tAP2XFxNAOqR4f6Jvjxz-1">
          <mxGeometry y="480" width="450" height="30" as="geometry" />
        </mxCell>
        <mxCell id="tAP2XFxNAOqR4f6Jvjxz-48" value="" style="shape=partialRectangle;overflow=hidden;connectable=0;fillColor=none;top=0;left=0;bottom=0;right=0;" vertex="1" parent="tAP2XFxNAOqR4f6Jvjxz-47">
          <mxGeometry width="30" height="30" as="geometry" />
        </mxCell>
        <mxCell id="tAP2XFxNAOqR4f6Jvjxz-49" value="`version_strategy_key` varchar(255) DEFAULT NULL COMMENT &#39;版本策略key&#39;" style="shape=partialRectangle;overflow=hidden;connectable=0;fillColor=none;top=0;left=0;bottom=0;right=0;align=left;spacingLeft=6;" vertex="1" parent="tAP2XFxNAOqR4f6Jvjxz-47">
          <mxGeometry x="30" width="420" height="30" as="geometry" />
        </mxCell>
        <mxCell id="tAP2XFxNAOqR4f6Jvjxz-50" value="" style="shape=partialRectangle;collapsible=0;dropTarget=0;pointerEvents=0;fillColor=none;points=[[0,0.5],[1,0.5]];portConstraint=eastwest;top=0;left=0;right=0;bottom=0;" vertex="1" parent="tAP2XFxNAOqR4f6Jvjxz-1">
          <mxGeometry y="510" width="450" height="30" as="geometry" />
        </mxCell>
        <mxCell id="tAP2XFxNAOqR4f6Jvjxz-51" value="" style="shape=partialRectangle;overflow=hidden;connectable=0;fillColor=none;top=0;left=0;bottom=0;right=0;" vertex="1" parent="tAP2XFxNAOqR4f6Jvjxz-50">
          <mxGeometry width="30" height="30" as="geometry" />
        </mxCell>
        <mxCell id="tAP2XFxNAOqR4f6Jvjxz-52" value="`classify` varchar(255) DEFAULT NULL COMMENT &#39;分类&#39;" style="shape=partialRectangle;overflow=hidden;connectable=0;fillColor=none;top=0;left=0;bottom=0;right=0;align=left;spacingLeft=6;" vertex="1" parent="tAP2XFxNAOqR4f6Jvjxz-50">
          <mxGeometry x="30" width="420" height="30" as="geometry" />
        </mxCell>
        <mxCell id="tAP2XFxNAOqR4f6Jvjxz-53" value="" style="shape=partialRectangle;collapsible=0;dropTarget=0;pointerEvents=0;fillColor=none;points=[[0,0.5],[1,0.5]];portConstraint=eastwest;top=0;left=0;right=0;bottom=0;" vertex="1" parent="tAP2XFxNAOqR4f6Jvjxz-1">
          <mxGeometry y="540" width="450" height="30" as="geometry" />
        </mxCell>
        <mxCell id="tAP2XFxNAOqR4f6Jvjxz-54" value="" style="shape=partialRectangle;overflow=hidden;connectable=0;fillColor=none;top=0;left=0;bottom=0;right=0;" vertex="1" parent="tAP2XFxNAOqR4f6Jvjxz-53">
          <mxGeometry width="30" height="30" as="geometry" />
        </mxCell>
        <mxCell id="tAP2XFxNAOqR4f6Jvjxz-55" value="`biz_contact` varchar(100) DEFAULT NULL COMMENT &#39;业务负责人&#39;" style="shape=partialRectangle;overflow=hidden;connectable=0;fillColor=none;top=0;left=0;bottom=0;right=0;align=left;spacingLeft=6;" vertex="1" parent="tAP2XFxNAOqR4f6Jvjxz-53">
          <mxGeometry x="30" width="420" height="30" as="geometry" />
        </mxCell>
        <mxCell id="tAP2XFxNAOqR4f6Jvjxz-56" value="" style="shape=partialRectangle;collapsible=0;dropTarget=0;pointerEvents=0;fillColor=none;points=[[0,0.5],[1,0.5]];portConstraint=eastwest;top=0;left=0;right=0;bottom=0;" vertex="1" parent="tAP2XFxNAOqR4f6Jvjxz-1">
          <mxGeometry y="570" width="450" height="30" as="geometry" />
        </mxCell>
        <mxCell id="tAP2XFxNAOqR4f6Jvjxz-57" value="" style="shape=partialRectangle;overflow=hidden;connectable=0;fillColor=none;top=0;left=0;bottom=0;right=0;" vertex="1" parent="tAP2XFxNAOqR4f6Jvjxz-56">
          <mxGeometry width="30" height="30" as="geometry" />
        </mxCell>
        <mxCell id="tAP2XFxNAOqR4f6Jvjxz-58" value="`tech_contact` varchar(100) DEFAULT NULL COMMENT &#39;技术负责人&#39;" style="shape=partialRectangle;overflow=hidden;connectable=0;fillColor=none;top=0;left=0;bottom=0;right=0;align=left;spacingLeft=6;" vertex="1" parent="tAP2XFxNAOqR4f6Jvjxz-56">
          <mxGeometry x="30" width="420" height="30" as="geometry" />
        </mxCell>
        <mxCell id="tAP2XFxNAOqR4f6Jvjxz-59" value="" style="shape=partialRectangle;collapsible=0;dropTarget=0;pointerEvents=0;fillColor=none;points=[[0,0.5],[1,0.5]];portConstraint=eastwest;top=0;left=0;right=0;bottom=0;" vertex="1" parent="tAP2XFxNAOqR4f6Jvjxz-1">
          <mxGeometry y="600" width="450" height="30" as="geometry" />
        </mxCell>
        <mxCell id="tAP2XFxNAOqR4f6Jvjxz-60" value="" style="shape=partialRectangle;overflow=hidden;connectable=0;fillColor=none;top=0;left=0;bottom=0;right=0;" vertex="1" parent="tAP2XFxNAOqR4f6Jvjxz-59">
          <mxGeometry width="30" height="30" as="geometry" />
        </mxCell>
        <mxCell id="tAP2XFxNAOqR4f6Jvjxz-61" value="`platform_code` varchar(50) DEFAULT NULL COMMENT &#39;平台编码&#39;" style="shape=partialRectangle;overflow=hidden;connectable=0;fillColor=none;top=0;left=0;bottom=0;right=0;align=left;spacingLeft=6;" vertex="1" parent="tAP2XFxNAOqR4f6Jvjxz-59">
          <mxGeometry x="30" width="420" height="30" as="geometry" />
        </mxCell>
        <mxCell id="tAP2XFxNAOqR4f6Jvjxz-62" value="" style="shape=partialRectangle;collapsible=0;dropTarget=0;pointerEvents=0;fillColor=none;points=[[0,0.5],[1,0.5]];portConstraint=eastwest;top=0;left=0;right=0;bottom=0;" vertex="1" parent="tAP2XFxNAOqR4f6Jvjxz-1">
          <mxGeometry y="630" width="450" height="30" as="geometry" />
        </mxCell>
        <mxCell id="tAP2XFxNAOqR4f6Jvjxz-63" value="" style="shape=partialRectangle;overflow=hidden;connectable=0;fillColor=none;top=0;left=0;bottom=0;right=0;" vertex="1" parent="tAP2XFxNAOqR4f6Jvjxz-62">
          <mxGeometry width="30" height="30" as="geometry" />
        </mxCell>
        <mxCell id="tAP2XFxNAOqR4f6Jvjxz-64" value="`last_enabled_at` datetime DEFAULT NULL COMMENT &#39;上次启用时间, 只要启用过，不能被删除&#39;" style="shape=partialRectangle;overflow=hidden;connectable=0;fillColor=none;top=0;left=0;bottom=0;right=0;align=left;spacingLeft=6;" vertex="1" parent="tAP2XFxNAOqR4f6Jvjxz-62">
          <mxGeometry x="30" width="420" height="30" as="geometry" />
        </mxCell>
        <mxCell id="tAP2XFxNAOqR4f6Jvjxz-65" value="" style="shape=partialRectangle;collapsible=0;dropTarget=0;pointerEvents=0;fillColor=none;points=[[0,0.5],[1,0.5]];portConstraint=eastwest;top=0;left=0;right=0;bottom=0;" vertex="1" parent="tAP2XFxNAOqR4f6Jvjxz-1">
          <mxGeometry y="660" width="450" height="30" as="geometry" />
        </mxCell>
        <mxCell id="tAP2XFxNAOqR4f6Jvjxz-66" value="" style="shape=partialRectangle;overflow=hidden;connectable=0;fillColor=none;top=0;left=0;bottom=0;right=0;" vertex="1" parent="tAP2XFxNAOqR4f6Jvjxz-65">
          <mxGeometry width="30" height="30" as="geometry" />
        </mxCell>
        <mxCell id="tAP2XFxNAOqR4f6Jvjxz-67" value="`main_flow` tinyint(1) DEFAULT &#39;1&#39; COMMENT &#39;是否主流程(0非主流程，1主流程)&#39;" style="shape=partialRectangle;overflow=hidden;connectable=0;fillColor=none;top=0;left=0;bottom=0;right=0;align=left;spacingLeft=6;" vertex="1" parent="tAP2XFxNAOqR4f6Jvjxz-65">
          <mxGeometry x="30" width="420" height="30" as="geometry" />
        </mxCell>
        <mxCell id="tAP2XFxNAOqR4f6Jvjxz-68" value="" style="shape=partialRectangle;collapsible=0;dropTarget=0;pointerEvents=0;fillColor=none;points=[[0,0.5],[1,0.5]];portConstraint=eastwest;top=0;left=0;right=0;bottom=0;" vertex="1" parent="tAP2XFxNAOqR4f6Jvjxz-1">
          <mxGeometry y="690" width="450" height="30" as="geometry" />
        </mxCell>
        <mxCell id="tAP2XFxNAOqR4f6Jvjxz-69" value="" style="shape=partialRectangle;overflow=hidden;connectable=0;fillColor=none;top=0;left=0;bottom=0;right=0;" vertex="1" parent="tAP2XFxNAOqR4f6Jvjxz-68">
          <mxGeometry width="30" height="30" as="geometry" />
        </mxCell>
        <mxCell id="tAP2XFxNAOqR4f6Jvjxz-70" value="`run_model` varchar(40) DEFAULT &#39;&#39; COMMENT &#39;运行模式，枚举：有状态STATEFUL | 无状态STATELESS&#39;" style="shape=partialRectangle;overflow=hidden;connectable=0;fillColor=none;top=0;left=0;bottom=0;right=0;align=left;spacingLeft=6;" vertex="1" parent="tAP2XFxNAOqR4f6Jvjxz-68">
          <mxGeometry x="30" width="420" height="30" as="geometry" />
        </mxCell>
        <mxCell id="tAP2XFxNAOqR4f6Jvjxz-71" value="" style="shape=partialRectangle;collapsible=0;dropTarget=0;pointerEvents=0;fillColor=none;points=[[0,0.5],[1,0.5]];portConstraint=eastwest;top=0;left=0;right=0;bottom=0;" vertex="1" parent="tAP2XFxNAOqR4f6Jvjxz-1">
          <mxGeometry y="720" width="450" height="30" as="geometry" />
        </mxCell>
        <mxCell id="tAP2XFxNAOqR4f6Jvjxz-72" value="" style="shape=partialRectangle;overflow=hidden;connectable=0;fillColor=none;top=0;left=0;bottom=0;right=0;" vertex="1" parent="tAP2XFxNAOqR4f6Jvjxz-71">
          <mxGeometry width="30" height="30" as="geometry" />
        </mxCell>
        <mxCell id="tAP2XFxNAOqR4f6Jvjxz-73" value="`run_priority` int(11) DEFAULT &#39;0&#39; COMMENT &#39;运行优先级，0-9，默认0，数值越大级别越高&#39;" style="shape=partialRectangle;overflow=hidden;connectable=0;fillColor=none;top=0;left=0;bottom=0;right=0;align=left;spacingLeft=6;" vertex="1" parent="tAP2XFxNAOqR4f6Jvjxz-71">
          <mxGeometry x="30" width="420" height="30" as="geometry" />
        </mxCell>
        <mxCell id="tAP2XFxNAOqR4f6Jvjxz-74" value="" style="shape=partialRectangle;collapsible=0;dropTarget=0;pointerEvents=0;fillColor=none;points=[[0,0.5],[1,0.5]];portConstraint=eastwest;top=0;left=0;right=0;bottom=0;" vertex="1" parent="tAP2XFxNAOqR4f6Jvjxz-1">
          <mxGeometry y="750" width="450" height="30" as="geometry" />
        </mxCell>
        <mxCell id="tAP2XFxNAOqR4f6Jvjxz-75" value="" style="shape=partialRectangle;overflow=hidden;connectable=0;fillColor=none;top=0;left=0;bottom=0;right=0;" vertex="1" parent="tAP2XFxNAOqR4f6Jvjxz-74">
          <mxGeometry width="30" height="30" as="geometry" />
        </mxCell>
        <mxCell id="tAP2XFxNAOqR4f6Jvjxz-76" value="KEY `idx_key` (`decision_flow_key`) USING BTREE" style="shape=partialRectangle;overflow=hidden;connectable=0;fillColor=none;top=0;left=0;bottom=0;right=0;align=left;spacingLeft=6;" vertex="1" parent="tAP2XFxNAOqR4f6Jvjxz-74">
          <mxGeometry x="30" width="420" height="30" as="geometry" />
        </mxCell>
        <mxCell id="tAP2XFxNAOqR4f6Jvjxz-77" value="" style="shape=partialRectangle;collapsible=0;dropTarget=0;pointerEvents=0;fillColor=none;points=[[0,0.5],[1,0.5]];portConstraint=eastwest;top=0;left=0;right=0;bottom=0;" vertex="1" parent="tAP2XFxNAOqR4f6Jvjxz-1">
          <mxGeometry y="780" width="450" height="30" as="geometry" />
        </mxCell>
        <mxCell id="tAP2XFxNAOqR4f6Jvjxz-78" value="" style="shape=partialRectangle;overflow=hidden;connectable=0;fillColor=none;top=0;left=0;bottom=0;right=0;" vertex="1" parent="tAP2XFxNAOqR4f6Jvjxz-77">
          <mxGeometry width="30" height="30" as="geometry" />
        </mxCell>
        <mxCell id="tAP2XFxNAOqR4f6Jvjxz-79" value="KEY `idx_name` (`name`) USING BTREE" style="shape=partialRectangle;overflow=hidden;connectable=0;fillColor=none;top=0;left=0;bottom=0;right=0;align=left;spacingLeft=6;" vertex="1" parent="tAP2XFxNAOqR4f6Jvjxz-77">
          <mxGeometry x="30" width="420" height="30" as="geometry" />
        </mxCell>
        <mxCell id="tAP2XFxNAOqR4f6Jvjxz-80" value="" style="shape=partialRectangle;collapsible=0;dropTarget=0;pointerEvents=0;fillColor=none;points=[[0,0.5],[1,0.5]];portConstraint=eastwest;top=0;left=0;right=0;bottom=0;" vertex="1" parent="tAP2XFxNAOqR4f6Jvjxz-1">
          <mxGeometry y="810" width="450" height="30" as="geometry" />
        </mxCell>
        <mxCell id="tAP2XFxNAOqR4f6Jvjxz-81" value="" style="shape=partialRectangle;overflow=hidden;connectable=0;fillColor=none;top=0;left=0;bottom=0;right=0;" vertex="1" parent="tAP2XFxNAOqR4f6Jvjxz-80">
          <mxGeometry width="30" height="30" as="geometry" />
        </mxCell>
        <mxCell id="tAP2XFxNAOqR4f6Jvjxz-82" value="KEY `idx_type` (`type`) USING BTREE" style="shape=partialRectangle;overflow=hidden;connectable=0;fillColor=none;top=0;left=0;bottom=0;right=0;align=left;spacingLeft=6;" vertex="1" parent="tAP2XFxNAOqR4f6Jvjxz-80">
          <mxGeometry x="30" width="420" height="30" as="geometry" />
        </mxCell>
        <mxCell id="tAP2XFxNAOqR4f6Jvjxz-83" value="" style="shape=partialRectangle;collapsible=0;dropTarget=0;pointerEvents=0;fillColor=none;points=[[0,0.5],[1,0.5]];portConstraint=eastwest;top=0;left=0;right=0;bottom=0;" vertex="1" parent="tAP2XFxNAOqR4f6Jvjxz-1">
          <mxGeometry y="840" width="450" height="30" as="geometry" />
        </mxCell>
        <mxCell id="tAP2XFxNAOqR4f6Jvjxz-84" value="" style="shape=partialRectangle;overflow=hidden;connectable=0;fillColor=none;top=0;left=0;bottom=0;right=0;" vertex="1" parent="tAP2XFxNAOqR4f6Jvjxz-83">
          <mxGeometry width="30" height="30" as="geometry" />
        </mxCell>
        <mxCell id="tAP2XFxNAOqR4f6Jvjxz-85" value="KEY `idx_updated_at` (`updated_at`) USING BTREE" style="shape=partialRectangle;overflow=hidden;connectable=0;fillColor=none;top=0;left=0;bottom=0;right=0;align=left;spacingLeft=6;" vertex="1" parent="tAP2XFxNAOqR4f6Jvjxz-83">
          <mxGeometry x="30" width="420" height="30" as="geometry" />
        </mxCell>
        <mxCell id="tAP2XFxNAOqR4f6Jvjxz-86" value="`decision_flow_version_pre`" style="shape=table;startSize=30;container=1;collapsible=1;childLayout=tableLayout;fixedRows=1;rowLines=0;fontStyle=1;align=center;resizeLast=1;" vertex="1" parent="1">
          <mxGeometry x="30" y="120" width="470" height="610" as="geometry" />
        </mxCell>
        <mxCell id="tAP2XFxNAOqR4f6Jvjxz-87" value="" style="shape=partialRectangle;collapsible=0;dropTarget=0;pointerEvents=0;fillColor=none;points=[[0,0.5],[1,0.5]];portConstraint=eastwest;top=0;left=0;right=0;bottom=0;" vertex="1" parent="tAP2XFxNAOqR4f6Jvjxz-86">
          <mxGeometry y="30" width="470" height="30" as="geometry" />
        </mxCell>
        <mxCell id="tAP2XFxNAOqR4f6Jvjxz-88" value="PK" style="shape=partialRectangle;overflow=hidden;connectable=0;fillColor=none;top=0;left=0;bottom=0;right=0;" vertex="1" parent="tAP2XFxNAOqR4f6Jvjxz-87">
          <mxGeometry width="30" height="30" as="geometry" />
        </mxCell>
        <mxCell id="tAP2XFxNAOqR4f6Jvjxz-89" value="`id` bigint(20) NOT NULL AUTO_INCREMENT" style="shape=partialRectangle;overflow=hidden;connectable=0;fillColor=none;top=0;left=0;bottom=0;right=0;align=left;spacingLeft=6;" vertex="1" parent="tAP2XFxNAOqR4f6Jvjxz-87">
          <mxGeometry x="30" width="440" height="30" as="geometry" />
        </mxCell>
        <mxCell id="tAP2XFxNAOqR4f6Jvjxz-90" value="" style="shape=partialRectangle;collapsible=0;dropTarget=0;pointerEvents=0;fillColor=none;points=[[0,0.5],[1,0.5]];portConstraint=eastwest;top=0;left=0;right=0;bottom=0;" vertex="1" parent="tAP2XFxNAOqR4f6Jvjxz-86">
          <mxGeometry y="60" width="470" height="30" as="geometry" />
        </mxCell>
        <mxCell id="tAP2XFxNAOqR4f6Jvjxz-91" value="" style="shape=partialRectangle;overflow=hidden;connectable=0;fillColor=none;top=0;left=0;bottom=0;right=0;" vertex="1" parent="tAP2XFxNAOqR4f6Jvjxz-90">
          <mxGeometry width="30" height="30" as="geometry" />
        </mxCell>
        <mxCell id="tAP2XFxNAOqR4f6Jvjxz-92" value="`decision_flow_key` varchar(255) DEFAULT NULL COMMENT &#39;流程编号&#39;" style="shape=partialRectangle;overflow=hidden;connectable=0;fillColor=none;top=0;left=0;bottom=0;right=0;align=left;spacingLeft=6;" vertex="1" parent="tAP2XFxNAOqR4f6Jvjxz-90">
          <mxGeometry x="30" width="440" height="30" as="geometry" />
        </mxCell>
        <mxCell id="tAP2XFxNAOqR4f6Jvjxz-93" value="" style="shape=partialRectangle;collapsible=0;dropTarget=0;pointerEvents=0;fillColor=none;points=[[0,0.5],[1,0.5]];portConstraint=eastwest;top=0;left=0;right=0;bottom=0;" vertex="1" parent="tAP2XFxNAOqR4f6Jvjxz-86">
          <mxGeometry y="90" width="470" height="30" as="geometry" />
        </mxCell>
        <mxCell id="tAP2XFxNAOqR4f6Jvjxz-94" value="" style="shape=partialRectangle;overflow=hidden;connectable=0;fillColor=none;top=0;left=0;bottom=0;right=0;" vertex="1" parent="tAP2XFxNAOqR4f6Jvjxz-93">
          <mxGeometry width="30" height="30" as="geometry" />
        </mxCell>
        <mxCell id="tAP2XFxNAOqR4f6Jvjxz-95" value="`version_no` varchar(40) DEFAULT NULL COMMENT &#39;版本号&#39;" style="shape=partialRectangle;overflow=hidden;connectable=0;fillColor=none;top=0;left=0;bottom=0;right=0;align=left;spacingLeft=6;" vertex="1" parent="tAP2XFxNAOqR4f6Jvjxz-93">
          <mxGeometry x="30" width="440" height="30" as="geometry" />
        </mxCell>
        <mxCell id="tAP2XFxNAOqR4f6Jvjxz-96" value="" style="shape=partialRectangle;collapsible=0;dropTarget=0;pointerEvents=0;fillColor=none;points=[[0,0.5],[1,0.5]];portConstraint=eastwest;top=0;left=0;right=0;bottom=0;" vertex="1" parent="tAP2XFxNAOqR4f6Jvjxz-86">
          <mxGeometry y="120" width="470" height="30" as="geometry" />
        </mxCell>
        <mxCell id="tAP2XFxNAOqR4f6Jvjxz-97" value="" style="shape=partialRectangle;overflow=hidden;connectable=0;fillColor=none;top=0;left=0;bottom=0;right=0;" vertex="1" parent="tAP2XFxNAOqR4f6Jvjxz-96">
          <mxGeometry width="30" height="30" as="geometry" />
        </mxCell>
        <mxCell id="tAP2XFxNAOqR4f6Jvjxz-98" value="`status` tinyint(1) DEFAULT &#39;0&#39; COMMENT &#39;流程状态&#39;" style="shape=partialRectangle;overflow=hidden;connectable=0;fillColor=none;top=0;left=0;bottom=0;right=0;align=left;spacingLeft=6;" vertex="1" parent="tAP2XFxNAOqR4f6Jvjxz-96">
          <mxGeometry x="30" width="440" height="30" as="geometry" />
        </mxCell>
        <mxCell id="tAP2XFxNAOqR4f6Jvjxz-99" value="" style="shape=partialRectangle;collapsible=0;dropTarget=0;pointerEvents=0;fillColor=none;points=[[0,0.5],[1,0.5]];portConstraint=eastwest;top=0;left=0;right=0;bottom=0;" vertex="1" parent="tAP2XFxNAOqR4f6Jvjxz-86">
          <mxGeometry y="150" width="470" height="30" as="geometry" />
        </mxCell>
        <mxCell id="tAP2XFxNAOqR4f6Jvjxz-100" value="" style="shape=partialRectangle;overflow=hidden;connectable=0;fillColor=none;top=0;left=0;bottom=0;right=0;" vertex="1" parent="tAP2XFxNAOqR4f6Jvjxz-99">
          <mxGeometry width="30" height="30" as="geometry" />
        </mxCell>
        <mxCell id="tAP2XFxNAOqR4f6Jvjxz-101" value="`context` longtext COMMENT &#39;流程内容&#39;" style="shape=partialRectangle;overflow=hidden;connectable=0;fillColor=none;top=0;left=0;bottom=0;right=0;align=left;spacingLeft=6;" vertex="1" parent="tAP2XFxNAOqR4f6Jvjxz-99">
          <mxGeometry x="30" width="440" height="30" as="geometry" />
        </mxCell>
        <mxCell id="tAP2XFxNAOqR4f6Jvjxz-102" value="" style="shape=partialRectangle;collapsible=0;dropTarget=0;pointerEvents=0;fillColor=none;points=[[0,0.5],[1,0.5]];portConstraint=eastwest;top=0;left=0;right=0;bottom=0;" vertex="1" parent="tAP2XFxNAOqR4f6Jvjxz-86">
          <mxGeometry y="180" width="470" height="30" as="geometry" />
        </mxCell>
        <mxCell id="tAP2XFxNAOqR4f6Jvjxz-103" value="" style="shape=partialRectangle;overflow=hidden;connectable=0;fillColor=none;top=0;left=0;bottom=0;right=0;" vertex="1" parent="tAP2XFxNAOqR4f6Jvjxz-102">
          <mxGeometry width="30" height="30" as="geometry" />
        </mxCell>
        <mxCell id="tAP2XFxNAOqR4f6Jvjxz-104" value="`modify_reason` varchar(255) DEFAULT NULL COMMENT &#39;修改原因&#39;" style="shape=partialRectangle;overflow=hidden;connectable=0;fillColor=none;top=0;left=0;bottom=0;right=0;align=left;spacingLeft=6;" vertex="1" parent="tAP2XFxNAOqR4f6Jvjxz-102">
          <mxGeometry x="30" width="440" height="30" as="geometry" />
        </mxCell>
        <mxCell id="tAP2XFxNAOqR4f6Jvjxz-105" value="" style="shape=partialRectangle;collapsible=0;dropTarget=0;pointerEvents=0;fillColor=none;points=[[0,0.5],[1,0.5]];portConstraint=eastwest;top=0;left=0;right=0;bottom=0;" vertex="1" parent="tAP2XFxNAOqR4f6Jvjxz-86">
          <mxGeometry y="210" width="470" height="30" as="geometry" />
        </mxCell>
        <mxCell id="tAP2XFxNAOqR4f6Jvjxz-106" value="" style="shape=partialRectangle;overflow=hidden;connectable=0;fillColor=none;top=0;left=0;bottom=0;right=0;" vertex="1" parent="tAP2XFxNAOqR4f6Jvjxz-105">
          <mxGeometry width="30" height="30" as="geometry" />
        </mxCell>
        <mxCell id="tAP2XFxNAOqR4f6Jvjxz-107" value="`deleted` tinyint(1) DEFAULT &#39;0&#39; COMMENT &#39;是否删除&#39;" style="shape=partialRectangle;overflow=hidden;connectable=0;fillColor=none;top=0;left=0;bottom=0;right=0;align=left;spacingLeft=6;" vertex="1" parent="tAP2XFxNAOqR4f6Jvjxz-105">
          <mxGeometry x="30" width="440" height="30" as="geometry" />
        </mxCell>
        <mxCell id="tAP2XFxNAOqR4f6Jvjxz-108" value="" style="shape=partialRectangle;collapsible=0;dropTarget=0;pointerEvents=0;fillColor=none;points=[[0,0.5],[1,0.5]];portConstraint=eastwest;top=0;left=0;right=0;bottom=0;" vertex="1" parent="tAP2XFxNAOqR4f6Jvjxz-86">
          <mxGeometry y="240" width="470" height="30" as="geometry" />
        </mxCell>
        <mxCell id="tAP2XFxNAOqR4f6Jvjxz-109" value="" style="shape=partialRectangle;overflow=hidden;connectable=0;fillColor=none;top=0;left=0;bottom=0;right=0;" vertex="1" parent="tAP2XFxNAOqR4f6Jvjxz-108">
          <mxGeometry width="30" height="30" as="geometry" />
        </mxCell>
        <mxCell id="tAP2XFxNAOqR4f6Jvjxz-110" value="`created_by` varchar(255) DEFAULT NULL COMMENT &#39;创建人&#39;" style="shape=partialRectangle;overflow=hidden;connectable=0;fillColor=none;top=0;left=0;bottom=0;right=0;align=left;spacingLeft=6;" vertex="1" parent="tAP2XFxNAOqR4f6Jvjxz-108">
          <mxGeometry x="30" width="440" height="30" as="geometry" />
        </mxCell>
        <mxCell id="tAP2XFxNAOqR4f6Jvjxz-111" value="" style="shape=partialRectangle;collapsible=0;dropTarget=0;pointerEvents=0;fillColor=none;points=[[0,0.5],[1,0.5]];portConstraint=eastwest;top=0;left=0;right=0;bottom=0;" vertex="1" parent="tAP2XFxNAOqR4f6Jvjxz-86">
          <mxGeometry y="270" width="470" height="30" as="geometry" />
        </mxCell>
        <mxCell id="tAP2XFxNAOqR4f6Jvjxz-112" value="" style="shape=partialRectangle;overflow=hidden;connectable=0;fillColor=none;top=0;left=0;bottom=0;right=0;" vertex="1" parent="tAP2XFxNAOqR4f6Jvjxz-111">
          <mxGeometry width="30" height="30" as="geometry" />
        </mxCell>
        <mxCell id="tAP2XFxNAOqR4f6Jvjxz-113" value="`updated_by` varchar(255) DEFAULT NULL COMMENT &#39;更新人&#39;" style="shape=partialRectangle;overflow=hidden;connectable=0;fillColor=none;top=0;left=0;bottom=0;right=0;align=left;spacingLeft=6;" vertex="1" parent="tAP2XFxNAOqR4f6Jvjxz-111">
          <mxGeometry x="30" width="440" height="30" as="geometry" />
        </mxCell>
        <mxCell id="tAP2XFxNAOqR4f6Jvjxz-114" value="" style="shape=partialRectangle;collapsible=0;dropTarget=0;pointerEvents=0;fillColor=none;points=[[0,0.5],[1,0.5]];portConstraint=eastwest;top=0;left=0;right=0;bottom=0;" vertex="1" parent="tAP2XFxNAOqR4f6Jvjxz-86">
          <mxGeometry y="300" width="470" height="30" as="geometry" />
        </mxCell>
        <mxCell id="tAP2XFxNAOqR4f6Jvjxz-115" value="" style="shape=partialRectangle;overflow=hidden;connectable=0;fillColor=none;top=0;left=0;bottom=0;right=0;" vertex="1" parent="tAP2XFxNAOqR4f6Jvjxz-114">
          <mxGeometry width="30" height="30" as="geometry" />
        </mxCell>
        <mxCell id="tAP2XFxNAOqR4f6Jvjxz-116" value="`created_at` datetime DEFAULT CURRENT_TIMESTAMP COMMENT &#39;创建时间&#39;" style="shape=partialRectangle;overflow=hidden;connectable=0;fillColor=none;top=0;left=0;bottom=0;right=0;align=left;spacingLeft=6;" vertex="1" parent="tAP2XFxNAOqR4f6Jvjxz-114">
          <mxGeometry x="30" width="440" height="30" as="geometry" />
        </mxCell>
        <mxCell id="tAP2XFxNAOqR4f6Jvjxz-117" value="" style="shape=partialRectangle;collapsible=0;dropTarget=0;pointerEvents=0;fillColor=none;points=[[0,0.5],[1,0.5]];portConstraint=eastwest;top=0;left=0;right=0;bottom=0;" vertex="1" parent="tAP2XFxNAOqR4f6Jvjxz-86">
          <mxGeometry y="330" width="470" height="30" as="geometry" />
        </mxCell>
        <mxCell id="tAP2XFxNAOqR4f6Jvjxz-118" value="" style="shape=partialRectangle;overflow=hidden;connectable=0;fillColor=none;top=0;left=0;bottom=0;right=0;" vertex="1" parent="tAP2XFxNAOqR4f6Jvjxz-117">
          <mxGeometry width="30" height="30" as="geometry" />
        </mxCell>
        <mxCell id="tAP2XFxNAOqR4f6Jvjxz-119" value="`updated_at` datetime DEFAULT CURRENT_TIMESTAMP ON UPDATE CURRENT_TIMESTAMP COMMENT &#39;更新时间&#39;" style="shape=partialRectangle;overflow=hidden;connectable=0;fillColor=none;top=0;left=0;bottom=0;right=0;align=left;spacingLeft=6;" vertex="1" parent="tAP2XFxNAOqR4f6Jvjxz-117">
          <mxGeometry x="30" width="440" height="30" as="geometry" />
        </mxCell>
        <mxCell id="tAP2XFxNAOqR4f6Jvjxz-120" value="" style="shape=partialRectangle;collapsible=0;dropTarget=0;pointerEvents=0;fillColor=none;points=[[0,0.5],[1,0.5]];portConstraint=eastwest;top=0;left=0;right=0;bottom=0;" vertex="1" parent="tAP2XFxNAOqR4f6Jvjxz-86">
          <mxGeometry y="360" width="470" height="30" as="geometry" />
        </mxCell>
        <mxCell id="tAP2XFxNAOqR4f6Jvjxz-121" value="" style="shape=partialRectangle;overflow=hidden;connectable=0;fillColor=none;top=0;left=0;bottom=0;right=0;" vertex="1" parent="tAP2XFxNAOqR4f6Jvjxz-120">
          <mxGeometry width="30" height="30" as="geometry" />
        </mxCell>
        <mxCell id="tAP2XFxNAOqR4f6Jvjxz-122" value="`location_message` longtext COMMENT &#39;位置信息&#39;" style="shape=partialRectangle;overflow=hidden;connectable=0;fillColor=none;top=0;left=0;bottom=0;right=0;align=left;spacingLeft=6;" vertex="1" parent="tAP2XFxNAOqR4f6Jvjxz-120">
          <mxGeometry x="30" width="440" height="30" as="geometry" />
        </mxCell>
        <mxCell id="tAP2XFxNAOqR4f6Jvjxz-123" value="" style="shape=partialRectangle;collapsible=0;dropTarget=0;pointerEvents=0;fillColor=none;points=[[0,0.5],[1,0.5]];portConstraint=eastwest;top=0;left=0;right=0;bottom=0;" vertex="1" parent="tAP2XFxNAOqR4f6Jvjxz-86">
          <mxGeometry y="390" width="470" height="30" as="geometry" />
        </mxCell>
        <mxCell id="tAP2XFxNAOqR4f6Jvjxz-124" value="" style="shape=partialRectangle;overflow=hidden;connectable=0;fillColor=none;top=0;left=0;bottom=0;right=0;" vertex="1" parent="tAP2XFxNAOqR4f6Jvjxz-123">
          <mxGeometry width="30" height="30" as="geometry" />
        </mxCell>
        <mxCell id="tAP2XFxNAOqR4f6Jvjxz-125" value="`parameter_config` longtext COMMENT &#39;参数设置&#39;" style="shape=partialRectangle;overflow=hidden;connectable=0;fillColor=none;top=0;left=0;bottom=0;right=0;align=left;spacingLeft=6;" vertex="1" parent="tAP2XFxNAOqR4f6Jvjxz-123">
          <mxGeometry x="30" width="440" height="30" as="geometry" />
        </mxCell>
        <mxCell id="tAP2XFxNAOqR4f6Jvjxz-126" value="" style="shape=partialRectangle;collapsible=0;dropTarget=0;pointerEvents=0;fillColor=none;points=[[0,0.5],[1,0.5]];portConstraint=eastwest;top=0;left=0;right=0;bottom=0;" vertex="1" parent="tAP2XFxNAOqR4f6Jvjxz-86">
          <mxGeometry y="420" width="470" height="30" as="geometry" />
        </mxCell>
        <mxCell id="tAP2XFxNAOqR4f6Jvjxz-127" value="" style="shape=partialRectangle;overflow=hidden;connectable=0;fillColor=none;top=0;left=0;bottom=0;right=0;" vertex="1" parent="tAP2XFxNAOqR4f6Jvjxz-126">
          <mxGeometry width="30" height="30" as="geometry" />
        </mxCell>
        <mxCell id="tAP2XFxNAOqR4f6Jvjxz-128" value="`log_config` int(11) DEFAULT NULL COMMENT &#39;日志设置&#39;" style="shape=partialRectangle;overflow=hidden;connectable=0;fillColor=none;top=0;left=0;bottom=0;right=0;align=left;spacingLeft=6;" vertex="1" parent="tAP2XFxNAOqR4f6Jvjxz-126">
          <mxGeometry x="30" width="440" height="30" as="geometry" />
        </mxCell>
        <mxCell id="tAP2XFxNAOqR4f6Jvjxz-129" value="" style="shape=partialRectangle;collapsible=0;dropTarget=0;pointerEvents=0;fillColor=none;points=[[0,0.5],[1,0.5]];portConstraint=eastwest;top=0;left=0;right=0;bottom=0;" vertex="1" parent="tAP2XFxNAOqR4f6Jvjxz-86">
          <mxGeometry y="450" width="470" height="30" as="geometry" />
        </mxCell>
        <mxCell id="tAP2XFxNAOqR4f6Jvjxz-130" value="" style="shape=partialRectangle;overflow=hidden;connectable=0;fillColor=none;top=0;left=0;bottom=0;right=0;" vertex="1" parent="tAP2XFxNAOqR4f6Jvjxz-129">
          <mxGeometry width="30" height="30" as="geometry" />
        </mxCell>
        <mxCell id="tAP2XFxNAOqR4f6Jvjxz-131" value="`extra_config` longtext COMMENT &#39;额外配置&#39;" style="shape=partialRectangle;overflow=hidden;connectable=0;fillColor=none;top=0;left=0;bottom=0;right=0;align=left;spacingLeft=6;" vertex="1" parent="tAP2XFxNAOqR4f6Jvjxz-129">
          <mxGeometry x="30" width="440" height="30" as="geometry" />
        </mxCell>
        <mxCell id="tAP2XFxNAOqR4f6Jvjxz-132" value="" style="shape=partialRectangle;collapsible=0;dropTarget=0;pointerEvents=0;fillColor=none;points=[[0,0.5],[1,0.5]];portConstraint=eastwest;top=0;left=0;right=0;bottom=0;" vertex="1" parent="tAP2XFxNAOqR4f6Jvjxz-86">
          <mxGeometry y="480" width="470" height="30" as="geometry" />
        </mxCell>
        <mxCell id="tAP2XFxNAOqR4f6Jvjxz-133" value="" style="shape=partialRectangle;overflow=hidden;connectable=0;fillColor=none;top=0;left=0;bottom=0;right=0;" vertex="1" parent="tAP2XFxNAOqR4f6Jvjxz-132">
          <mxGeometry width="30" height="30" as="geometry" />
        </mxCell>
        <mxCell id="tAP2XFxNAOqR4f6Jvjxz-134" value="UNIQUE KEY `idx_key_versionno` (`decision_flow_key`,`version_no`)" style="shape=partialRectangle;overflow=hidden;connectable=0;fillColor=none;top=0;left=0;bottom=0;right=0;align=left;spacingLeft=6;" vertex="1" parent="tAP2XFxNAOqR4f6Jvjxz-132">
          <mxGeometry x="30" width="440" height="30" as="geometry" />
        </mxCell>
        <mxCell id="tAP2XFxNAOqR4f6Jvjxz-135" value="`bf_flow_info_pre`" style="shape=table;startSize=30;container=1;collapsible=1;childLayout=tableLayout;fixedRows=1;rowLines=0;fontStyle=1;align=center;resizeLast=1;" vertex="1" parent="1">
          <mxGeometry x="580" y="10" width="590" height="690" as="geometry" />
        </mxCell>
        <mxCell id="tAP2XFxNAOqR4f6Jvjxz-136" value="" style="shape=partialRectangle;collapsible=0;dropTarget=0;pointerEvents=0;fillColor=none;points=[[0,0.5],[1,0.5]];portConstraint=eastwest;top=0;left=0;right=0;bottom=0;" vertex="1" parent="tAP2XFxNAOqR4f6Jvjxz-135">
          <mxGeometry y="30" width="590" height="30" as="geometry" />
        </mxCell>
        <mxCell id="tAP2XFxNAOqR4f6Jvjxz-137" value="PK" style="shape=partialRectangle;overflow=hidden;connectable=0;fillColor=none;top=0;left=0;bottom=0;right=0;" vertex="1" parent="tAP2XFxNAOqR4f6Jvjxz-136">
          <mxGeometry width="30" height="30" as="geometry" />
        </mxCell>
        <mxCell id="tAP2XFxNAOqR4f6Jvjxz-138" value="`id` bigint(20) NOT NULL AUTO_INCREMENT COMMENT &#39;ID&#39;" style="shape=partialRectangle;overflow=hidden;connectable=0;fillColor=none;top=0;left=0;bottom=0;right=0;align=left;spacingLeft=6;" vertex="1" parent="tAP2XFxNAOqR4f6Jvjxz-136">
          <mxGeometry x="30" width="560" height="30" as="geometry" />
        </mxCell>
        <mxCell id="tAP2XFxNAOqR4f6Jvjxz-139" value="" style="shape=partialRectangle;collapsible=0;dropTarget=0;pointerEvents=0;fillColor=none;points=[[0,0.5],[1,0.5]];portConstraint=eastwest;top=0;left=0;right=0;bottom=0;" vertex="1" parent="tAP2XFxNAOqR4f6Jvjxz-135">
          <mxGeometry y="60" width="590" height="30" as="geometry" />
        </mxCell>
        <mxCell id="tAP2XFxNAOqR4f6Jvjxz-140" value="" style="shape=partialRectangle;overflow=hidden;connectable=0;fillColor=none;top=0;left=0;bottom=0;right=0;" vertex="1" parent="tAP2XFxNAOqR4f6Jvjxz-139">
          <mxGeometry width="30" height="30" as="geometry" />
        </mxCell>
        <mxCell id="tAP2XFxNAOqR4f6Jvjxz-141" value="`biz_key` varchar(60) NOT NULL COMMENT &#39;业务key&#39;" style="shape=partialRectangle;overflow=hidden;connectable=0;fillColor=none;top=0;left=0;bottom=0;right=0;align=left;spacingLeft=6;" vertex="1" parent="tAP2XFxNAOqR4f6Jvjxz-139">
          <mxGeometry x="30" width="560" height="30" as="geometry" />
        </mxCell>
        <mxCell id="tAP2XFxNAOqR4f6Jvjxz-142" value="" style="shape=partialRectangle;collapsible=0;dropTarget=0;pointerEvents=0;fillColor=none;points=[[0,0.5],[1,0.5]];portConstraint=eastwest;top=0;left=0;right=0;bottom=0;" vertex="1" parent="tAP2XFxNAOqR4f6Jvjxz-135">
          <mxGeometry y="90" width="590" height="30" as="geometry" />
        </mxCell>
        <mxCell id="tAP2XFxNAOqR4f6Jvjxz-143" value="" style="shape=partialRectangle;overflow=hidden;connectable=0;fillColor=none;top=0;left=0;bottom=0;right=0;" vertex="1" parent="tAP2XFxNAOqR4f6Jvjxz-142">
          <mxGeometry width="30" height="30" as="geometry" />
        </mxCell>
        <mxCell id="tAP2XFxNAOqR4f6Jvjxz-144" value="`biz_serial` varchar(60) NOT NULL COMMENT &#39;业务流水&#39;" style="shape=partialRectangle;overflow=hidden;connectable=0;fillColor=none;top=0;left=0;bottom=0;right=0;align=left;spacingLeft=6;" vertex="1" parent="tAP2XFxNAOqR4f6Jvjxz-142">
          <mxGeometry x="30" width="560" height="30" as="geometry" />
        </mxCell>
        <mxCell id="tAP2XFxNAOqR4f6Jvjxz-145" value="" style="shape=partialRectangle;collapsible=0;dropTarget=0;pointerEvents=0;fillColor=none;points=[[0,0.5],[1,0.5]];portConstraint=eastwest;top=0;left=0;right=0;bottom=0;" vertex="1" parent="tAP2XFxNAOqR4f6Jvjxz-135">
          <mxGeometry y="120" width="590" height="30" as="geometry" />
        </mxCell>
        <mxCell id="tAP2XFxNAOqR4f6Jvjxz-146" value="" style="shape=partialRectangle;overflow=hidden;connectable=0;fillColor=none;top=0;left=0;bottom=0;right=0;" vertex="1" parent="tAP2XFxNAOqR4f6Jvjxz-145">
          <mxGeometry width="30" height="30" as="geometry" />
        </mxCell>
        <mxCell id="tAP2XFxNAOqR4f6Jvjxz-147" value="`facts` mediumtext NOT NULL COMMENT &#39;输入项&#39;" style="shape=partialRectangle;overflow=hidden;connectable=0;fillColor=none;top=0;left=0;bottom=0;right=0;align=left;spacingLeft=6;" vertex="1" parent="tAP2XFxNAOqR4f6Jvjxz-145">
          <mxGeometry x="30" width="560" height="30" as="geometry" />
        </mxCell>
        <mxCell id="tAP2XFxNAOqR4f6Jvjxz-148" value="" style="shape=partialRectangle;collapsible=0;dropTarget=0;pointerEvents=0;fillColor=none;points=[[0,0.5],[1,0.5]];portConstraint=eastwest;top=0;left=0;right=0;bottom=0;" vertex="1" parent="tAP2XFxNAOqR4f6Jvjxz-135">
          <mxGeometry y="150" width="590" height="30" as="geometry" />
        </mxCell>
        <mxCell id="tAP2XFxNAOqR4f6Jvjxz-149" value="" style="shape=partialRectangle;overflow=hidden;connectable=0;fillColor=none;top=0;left=0;bottom=0;right=0;" vertex="1" parent="tAP2XFxNAOqR4f6Jvjxz-148">
          <mxGeometry width="30" height="30" as="geometry" />
        </mxCell>
        <mxCell id="tAP2XFxNAOqR4f6Jvjxz-150" value="`request_param` json DEFAULT NULL COMMENT &#39;请求参数&#39;" style="shape=partialRectangle;overflow=hidden;connectable=0;fillColor=none;top=0;left=0;bottom=0;right=0;align=left;spacingLeft=6;" vertex="1" parent="tAP2XFxNAOqR4f6Jvjxz-148">
          <mxGeometry x="30" width="560" height="30" as="geometry" />
        </mxCell>
        <mxCell id="tAP2XFxNAOqR4f6Jvjxz-151" value="" style="shape=partialRectangle;collapsible=0;dropTarget=0;pointerEvents=0;fillColor=none;points=[[0,0.5],[1,0.5]];portConstraint=eastwest;top=0;left=0;right=0;bottom=0;" vertex="1" parent="tAP2XFxNAOqR4f6Jvjxz-135">
          <mxGeometry y="180" width="590" height="30" as="geometry" />
        </mxCell>
        <mxCell id="tAP2XFxNAOqR4f6Jvjxz-152" value="" style="shape=partialRectangle;overflow=hidden;connectable=0;fillColor=none;top=0;left=0;bottom=0;right=0;" vertex="1" parent="tAP2XFxNAOqR4f6Jvjxz-151">
          <mxGeometry width="30" height="30" as="geometry" />
        </mxCell>
        <mxCell id="tAP2XFxNAOqR4f6Jvjxz-153" value="`exec_status` varchar(10) NOT NULL COMMENT &#39;执行状态&#39;" style="shape=partialRectangle;overflow=hidden;connectable=0;fillColor=none;top=0;left=0;bottom=0;right=0;align=left;spacingLeft=6;" vertex="1" parent="tAP2XFxNAOqR4f6Jvjxz-151">
          <mxGeometry x="30" width="560" height="30" as="geometry" />
        </mxCell>
        <mxCell id="tAP2XFxNAOqR4f6Jvjxz-154" value="" style="shape=partialRectangle;collapsible=0;dropTarget=0;pointerEvents=0;fillColor=none;points=[[0,0.5],[1,0.5]];portConstraint=eastwest;top=0;left=0;right=0;bottom=0;" vertex="1" parent="tAP2XFxNAOqR4f6Jvjxz-135">
          <mxGeometry y="210" width="590" height="30" as="geometry" />
        </mxCell>
        <mxCell id="tAP2XFxNAOqR4f6Jvjxz-155" value="" style="shape=partialRectangle;overflow=hidden;connectable=0;fillColor=none;top=0;left=0;bottom=0;right=0;" vertex="1" parent="tAP2XFxNAOqR4f6Jvjxz-154">
          <mxGeometry width="30" height="30" as="geometry" />
        </mxCell>
        <mxCell id="tAP2XFxNAOqR4f6Jvjxz-156" value="`node` json DEFAULT NULL COMMENT &#39;节点信息&#39;" style="shape=partialRectangle;overflow=hidden;connectable=0;fillColor=none;top=0;left=0;bottom=0;right=0;align=left;spacingLeft=6;" vertex="1" parent="tAP2XFxNAOqR4f6Jvjxz-154">
          <mxGeometry x="30" width="560" height="30" as="geometry" />
        </mxCell>
        <mxCell id="tAP2XFxNAOqR4f6Jvjxz-157" value="" style="shape=partialRectangle;collapsible=0;dropTarget=0;pointerEvents=0;fillColor=none;points=[[0,0.5],[1,0.5]];portConstraint=eastwest;top=0;left=0;right=0;bottom=0;" vertex="1" parent="tAP2XFxNAOqR4f6Jvjxz-135">
          <mxGeometry y="240" width="590" height="30" as="geometry" />
        </mxCell>
        <mxCell id="tAP2XFxNAOqR4f6Jvjxz-158" value="" style="shape=partialRectangle;overflow=hidden;connectable=0;fillColor=none;top=0;left=0;bottom=0;right=0;" vertex="1" parent="tAP2XFxNAOqR4f6Jvjxz-157">
          <mxGeometry width="30" height="30" as="geometry" />
        </mxCell>
        <mxCell id="tAP2XFxNAOqR4f6Jvjxz-159" value="`handled_times` int(11) DEFAULT &#39;0&#39; COMMENT &#39;已处理次数&#39;" style="shape=partialRectangle;overflow=hidden;connectable=0;fillColor=none;top=0;left=0;bottom=0;right=0;align=left;spacingLeft=6;" vertex="1" parent="tAP2XFxNAOqR4f6Jvjxz-157">
          <mxGeometry x="30" width="560" height="30" as="geometry" />
        </mxCell>
        <mxCell id="tAP2XFxNAOqR4f6Jvjxz-160" value="" style="shape=partialRectangle;collapsible=0;dropTarget=0;pointerEvents=0;fillColor=none;points=[[0,0.5],[1,0.5]];portConstraint=eastwest;top=0;left=0;right=0;bottom=0;" vertex="1" parent="tAP2XFxNAOqR4f6Jvjxz-135">
          <mxGeometry y="270" width="590" height="30" as="geometry" />
        </mxCell>
        <mxCell id="tAP2XFxNAOqR4f6Jvjxz-161" value="" style="shape=partialRectangle;overflow=hidden;connectable=0;fillColor=none;top=0;left=0;bottom=0;right=0;" vertex="1" parent="tAP2XFxNAOqR4f6Jvjxz-160">
          <mxGeometry width="30" height="30" as="geometry" />
        </mxCell>
        <mxCell id="tAP2XFxNAOqR4f6Jvjxz-162" value="`next_handle_time` datetime DEFAULT NULL COMMENT &#39;下次处理时间&#39;" style="shape=partialRectangle;overflow=hidden;connectable=0;fillColor=none;top=0;left=0;bottom=0;right=0;align=left;spacingLeft=6;" vertex="1" parent="tAP2XFxNAOqR4f6Jvjxz-160">
          <mxGeometry x="30" width="560" height="30" as="geometry" />
        </mxCell>
        <mxCell id="tAP2XFxNAOqR4f6Jvjxz-163" value="" style="shape=partialRectangle;collapsible=0;dropTarget=0;pointerEvents=0;fillColor=none;points=[[0,0.5],[1,0.5]];portConstraint=eastwest;top=0;left=0;right=0;bottom=0;" vertex="1" parent="tAP2XFxNAOqR4f6Jvjxz-135">
          <mxGeometry y="300" width="590" height="30" as="geometry" />
        </mxCell>
        <mxCell id="tAP2XFxNAOqR4f6Jvjxz-164" value="" style="shape=partialRectangle;overflow=hidden;connectable=0;fillColor=none;top=0;left=0;bottom=0;right=0;" vertex="1" parent="tAP2XFxNAOqR4f6Jvjxz-163">
          <mxGeometry width="30" height="30" as="geometry" />
        </mxCell>
        <mxCell id="tAP2XFxNAOqR4f6Jvjxz-165" value="`label` varchar(60) DEFAULT &#39;&#39; COMMENT &#39;标签&#39;" style="shape=partialRectangle;overflow=hidden;connectable=0;fillColor=none;top=0;left=0;bottom=0;right=0;align=left;spacingLeft=6;" vertex="1" parent="tAP2XFxNAOqR4f6Jvjxz-163">
          <mxGeometry x="30" width="560" height="30" as="geometry" />
        </mxCell>
        <mxCell id="tAP2XFxNAOqR4f6Jvjxz-166" value="" style="shape=partialRectangle;collapsible=0;dropTarget=0;pointerEvents=0;fillColor=none;points=[[0,0.5],[1,0.5]];portConstraint=eastwest;top=0;left=0;right=0;bottom=0;" vertex="1" parent="tAP2XFxNAOqR4f6Jvjxz-135">
          <mxGeometry y="330" width="590" height="30" as="geometry" />
        </mxCell>
        <mxCell id="tAP2XFxNAOqR4f6Jvjxz-167" value="" style="shape=partialRectangle;overflow=hidden;connectable=0;fillColor=none;top=0;left=0;bottom=0;right=0;" vertex="1" parent="tAP2XFxNAOqR4f6Jvjxz-166">
          <mxGeometry width="30" height="30" as="geometry" />
        </mxCell>
        <mxCell id="tAP2XFxNAOqR4f6Jvjxz-168" value="`created_at` datetime NOT NULL DEFAULT CURRENT_TIMESTAMP COMMENT &#39;创建时间&#39;" style="shape=partialRectangle;overflow=hidden;connectable=0;fillColor=none;top=0;left=0;bottom=0;right=0;align=left;spacingLeft=6;" vertex="1" parent="tAP2XFxNAOqR4f6Jvjxz-166">
          <mxGeometry x="30" width="560" height="30" as="geometry" />
        </mxCell>
        <mxCell id="tAP2XFxNAOqR4f6Jvjxz-169" value="" style="shape=partialRectangle;collapsible=0;dropTarget=0;pointerEvents=0;fillColor=none;points=[[0,0.5],[1,0.5]];portConstraint=eastwest;top=0;left=0;right=0;bottom=0;" vertex="1" parent="tAP2XFxNAOqR4f6Jvjxz-135">
          <mxGeometry y="360" width="590" height="30" as="geometry" />
        </mxCell>
        <mxCell id="tAP2XFxNAOqR4f6Jvjxz-170" value="" style="shape=partialRectangle;overflow=hidden;connectable=0;fillColor=none;top=0;left=0;bottom=0;right=0;" vertex="1" parent="tAP2XFxNAOqR4f6Jvjxz-169">
          <mxGeometry width="30" height="30" as="geometry" />
        </mxCell>
        <mxCell id="tAP2XFxNAOqR4f6Jvjxz-171" value="`updated_at` datetime NOT NULL DEFAULT CURRENT_TIMESTAMP ON UPDATE CURRENT_TIMESTAMP COMMENT &#39;更新时间&#39;" style="shape=partialRectangle;overflow=hidden;connectable=0;fillColor=none;top=0;left=0;bottom=0;right=0;align=left;spacingLeft=6;" vertex="1" parent="tAP2XFxNAOqR4f6Jvjxz-169">
          <mxGeometry x="30" width="560" height="30" as="geometry" />
        </mxCell>
        <mxCell id="tAP2XFxNAOqR4f6Jvjxz-172" value="" style="shape=partialRectangle;collapsible=0;dropTarget=0;pointerEvents=0;fillColor=none;points=[[0,0.5],[1,0.5]];portConstraint=eastwest;top=0;left=0;right=0;bottom=0;" vertex="1" parent="tAP2XFxNAOqR4f6Jvjxz-135">
          <mxGeometry y="390" width="590" height="30" as="geometry" />
        </mxCell>
        <mxCell id="tAP2XFxNAOqR4f6Jvjxz-173" value="" style="shape=partialRectangle;overflow=hidden;connectable=0;fillColor=none;top=0;left=0;bottom=0;right=0;" vertex="1" parent="tAP2XFxNAOqR4f6Jvjxz-172">
          <mxGeometry width="30" height="30" as="geometry" />
        </mxCell>
        <mxCell id="tAP2XFxNAOqR4f6Jvjxz-174" value="`version_no` varchar(40) DEFAULT NULL COMMENT &#39;版本号&#39;" style="shape=partialRectangle;overflow=hidden;connectable=0;fillColor=none;top=0;left=0;bottom=0;right=0;align=left;spacingLeft=6;" vertex="1" parent="tAP2XFxNAOqR4f6Jvjxz-172">
          <mxGeometry x="30" width="560" height="30" as="geometry" />
        </mxCell>
        <mxCell id="tAP2XFxNAOqR4f6Jvjxz-175" value="" style="shape=partialRectangle;collapsible=0;dropTarget=0;pointerEvents=0;fillColor=none;points=[[0,0.5],[1,0.5]];portConstraint=eastwest;top=0;left=0;right=0;bottom=0;" vertex="1" parent="tAP2XFxNAOqR4f6Jvjxz-135">
          <mxGeometry y="420" width="590" height="30" as="geometry" />
        </mxCell>
        <mxCell id="tAP2XFxNAOqR4f6Jvjxz-176" value="" style="shape=partialRectangle;overflow=hidden;connectable=0;fillColor=none;top=0;left=0;bottom=0;right=0;" vertex="1" parent="tAP2XFxNAOqR4f6Jvjxz-175">
          <mxGeometry width="30" height="30" as="geometry" />
        </mxCell>
        <mxCell id="tAP2XFxNAOqR4f6Jvjxz-177" value="KEY `idx_biz_key` (`biz_key`)" style="shape=partialRectangle;overflow=hidden;connectable=0;fillColor=none;top=0;left=0;bottom=0;right=0;align=left;spacingLeft=6;" vertex="1" parent="tAP2XFxNAOqR4f6Jvjxz-175">
          <mxGeometry x="30" width="560" height="30" as="geometry" />
        </mxCell>
        <mxCell id="tAP2XFxNAOqR4f6Jvjxz-178" value="" style="shape=partialRectangle;collapsible=0;dropTarget=0;pointerEvents=0;fillColor=none;points=[[0,0.5],[1,0.5]];portConstraint=eastwest;top=0;left=0;right=0;bottom=0;" vertex="1" parent="tAP2XFxNAOqR4f6Jvjxz-135">
          <mxGeometry y="450" width="590" height="30" as="geometry" />
        </mxCell>
        <mxCell id="tAP2XFxNAOqR4f6Jvjxz-179" value="" style="shape=partialRectangle;overflow=hidden;connectable=0;fillColor=none;top=0;left=0;bottom=0;right=0;" vertex="1" parent="tAP2XFxNAOqR4f6Jvjxz-178">
          <mxGeometry width="30" height="30" as="geometry" />
        </mxCell>
        <mxCell id="tAP2XFxNAOqR4f6Jvjxz-180" value="KEY `idx_biz_serial` (`biz_serial`)" style="shape=partialRectangle;overflow=hidden;connectable=0;fillColor=none;top=0;left=0;bottom=0;right=0;align=left;spacingLeft=6;" vertex="1" parent="tAP2XFxNAOqR4f6Jvjxz-178">
          <mxGeometry x="30" width="560" height="30" as="geometry" />
        </mxCell>
        <mxCell id="tAP2XFxNAOqR4f6Jvjxz-181" value="" style="shape=partialRectangle;collapsible=0;dropTarget=0;pointerEvents=0;fillColor=none;points=[[0,0.5],[1,0.5]];portConstraint=eastwest;top=0;left=0;right=0;bottom=0;" vertex="1" parent="tAP2XFxNAOqR4f6Jvjxz-135">
          <mxGeometry y="480" width="590" height="30" as="geometry" />
        </mxCell>
        <mxCell id="tAP2XFxNAOqR4f6Jvjxz-182" value="" style="shape=partialRectangle;overflow=hidden;connectable=0;fillColor=none;top=0;left=0;bottom=0;right=0;" vertex="1" parent="tAP2XFxNAOqR4f6Jvjxz-181">
          <mxGeometry width="30" height="30" as="geometry" />
        </mxCell>
        <mxCell id="tAP2XFxNAOqR4f6Jvjxz-183" value="KEY `idx_created_at` (`created_at`)" style="shape=partialRectangle;overflow=hidden;connectable=0;fillColor=none;top=0;left=0;bottom=0;right=0;align=left;spacingLeft=6;" vertex="1" parent="tAP2XFxNAOqR4f6Jvjxz-181">
          <mxGeometry x="30" width="560" height="30" as="geometry" />
        </mxCell>
        <mxCell id="tAP2XFxNAOqR4f6Jvjxz-184" value="" style="shape=partialRectangle;collapsible=0;dropTarget=0;pointerEvents=0;fillColor=none;points=[[0,0.5],[1,0.5]];portConstraint=eastwest;top=0;left=0;right=0;bottom=0;" vertex="1" parent="tAP2XFxNAOqR4f6Jvjxz-135">
          <mxGeometry y="510" width="590" height="30" as="geometry" />
        </mxCell>
        <mxCell id="tAP2XFxNAOqR4f6Jvjxz-185" value="" style="shape=partialRectangle;overflow=hidden;connectable=0;fillColor=none;top=0;left=0;bottom=0;right=0;" vertex="1" parent="tAP2XFxNAOqR4f6Jvjxz-184">
          <mxGeometry width="30" height="30" as="geometry" />
        </mxCell>
        <mxCell id="tAP2XFxNAOqR4f6Jvjxz-186" value="KEY `idx_status_next_time` (`exec_status`,`next_handle_time`)" style="shape=partialRectangle;overflow=hidden;connectable=0;fillColor=none;top=0;left=0;bottom=0;right=0;align=left;spacingLeft=6;" vertex="1" parent="tAP2XFxNAOqR4f6Jvjxz-184">
          <mxGeometry x="30" width="560" height="30" as="geometry" />
        </mxCell>
        <mxCell id="tAP2XFxNAOqR4f6Jvjxz-187" value="" style="shape=partialRectangle;collapsible=0;dropTarget=0;pointerEvents=0;fillColor=none;points=[[0,0.5],[1,0.5]];portConstraint=eastwest;top=0;left=0;right=0;bottom=0;" vertex="1" parent="tAP2XFxNAOqR4f6Jvjxz-135">
          <mxGeometry y="540" width="590" height="30" as="geometry" />
        </mxCell>
        <mxCell id="tAP2XFxNAOqR4f6Jvjxz-188" value="" style="shape=partialRectangle;overflow=hidden;connectable=0;fillColor=none;top=0;left=0;bottom=0;right=0;" vertex="1" parent="tAP2XFxNAOqR4f6Jvjxz-187">
          <mxGeometry width="30" height="30" as="geometry" />
        </mxCell>
        <mxCell id="tAP2XFxNAOqR4f6Jvjxz-189" value="KEY `idx_updated_at_status` (`updated_at`,`exec_status`) USING BTREE" style="shape=partialRectangle;overflow=hidden;connectable=0;fillColor=none;top=0;left=0;bottom=0;right=0;align=left;spacingLeft=6;" vertex="1" parent="tAP2XFxNAOqR4f6Jvjxz-187">
          <mxGeometry x="30" width="560" height="30" as="geometry" />
        </mxCell>
        <mxCell id="tAP2XFxNAOqR4f6Jvjxz-190" value="" style="shape=partialRectangle;collapsible=0;dropTarget=0;pointerEvents=0;fillColor=none;points=[[0,0.5],[1,0.5]];portConstraint=eastwest;top=0;left=0;right=0;bottom=0;" vertex="1" parent="tAP2XFxNAOqR4f6Jvjxz-135">
          <mxGeometry y="570" width="590" height="30" as="geometry" />
        </mxCell>
        <mxCell id="tAP2XFxNAOqR4f6Jvjxz-191" value="" style="shape=partialRectangle;overflow=hidden;connectable=0;fillColor=none;top=0;left=0;bottom=0;right=0;" vertex="1" parent="tAP2XFxNAOqR4f6Jvjxz-190">
          <mxGeometry width="30" height="30" as="geometry" />
        </mxCell>
        <mxCell id="tAP2XFxNAOqR4f6Jvjxz-192" value="KEY `idx_serial_status` (`biz_serial`,`biz_key`,`exec_status`)" style="shape=partialRectangle;overflow=hidden;connectable=0;fillColor=none;top=0;left=0;bottom=0;right=0;align=left;spacingLeft=6;" vertex="1" parent="tAP2XFxNAOqR4f6Jvjxz-190">
          <mxGeometry x="30" width="560" height="30" as="geometry" />
        </mxCell>
        <mxCell id="tAP2XFxNAOqR4f6Jvjxz-193" value="`bf_process_info_pre`" style="shape=table;startSize=30;container=1;collapsible=1;childLayout=tableLayout;fixedRows=1;rowLines=0;fontStyle=1;align=center;resizeLast=1;" vertex="1" parent="1">
          <mxGeometry x="1230" y="80" width="320" height="580" as="geometry" />
        </mxCell>
        <mxCell id="tAP2XFxNAOqR4f6Jvjxz-194" value="" style="shape=partialRectangle;collapsible=0;dropTarget=0;pointerEvents=0;fillColor=none;points=[[0,0.5],[1,0.5]];portConstraint=eastwest;top=0;left=0;right=0;bottom=0;" vertex="1" parent="tAP2XFxNAOqR4f6Jvjxz-193">
          <mxGeometry y="30" width="320" height="30" as="geometry" />
        </mxCell>
        <mxCell id="tAP2XFxNAOqR4f6Jvjxz-195" value="PK" style="shape=partialRectangle;overflow=hidden;connectable=0;fillColor=none;top=0;left=0;bottom=0;right=0;" vertex="1" parent="tAP2XFxNAOqR4f6Jvjxz-194">
          <mxGeometry width="30" height="30" as="geometry" />
        </mxCell>
        <mxCell id="tAP2XFxNAOqR4f6Jvjxz-196" value="`id` bigint(20) NOT NULL AUTO_INCREMENT COMMENT &#39;ID&#39;" style="shape=partialRectangle;overflow=hidden;connectable=0;fillColor=none;top=0;left=0;bottom=0;right=0;align=left;spacingLeft=6;" vertex="1" parent="tAP2XFxNAOqR4f6Jvjxz-194">
          <mxGeometry x="30" width="290" height="30" as="geometry" />
        </mxCell>
        <mxCell id="tAP2XFxNAOqR4f6Jvjxz-197" value="" style="shape=partialRectangle;collapsible=0;dropTarget=0;pointerEvents=0;fillColor=none;points=[[0,0.5],[1,0.5]];portConstraint=eastwest;top=0;left=0;right=0;bottom=0;" vertex="1" parent="tAP2XFxNAOqR4f6Jvjxz-193">
          <mxGeometry y="60" width="320" height="30" as="geometry" />
        </mxCell>
        <mxCell id="tAP2XFxNAOqR4f6Jvjxz-198" value="" style="shape=partialRectangle;overflow=hidden;connectable=0;fillColor=none;top=0;left=0;bottom=0;right=0;" vertex="1" parent="tAP2XFxNAOqR4f6Jvjxz-197">
          <mxGeometry width="30" height="30" as="geometry" />
        </mxCell>
        <mxCell id="tAP2XFxNAOqR4f6Jvjxz-199" value="`biz_key` varchar(60) NOT NULL COMMENT &#39;业务key&#39;" style="shape=partialRectangle;overflow=hidden;connectable=0;fillColor=none;top=0;left=0;bottom=0;right=0;align=left;spacingLeft=6;" vertex="1" parent="tAP2XFxNAOqR4f6Jvjxz-197">
          <mxGeometry x="30" width="290" height="30" as="geometry" />
        </mxCell>
        <mxCell id="tAP2XFxNAOqR4f6Jvjxz-200" value="" style="shape=partialRectangle;collapsible=0;dropTarget=0;pointerEvents=0;fillColor=none;points=[[0,0.5],[1,0.5]];portConstraint=eastwest;top=0;left=0;right=0;bottom=0;" vertex="1" parent="tAP2XFxNAOqR4f6Jvjxz-193">
          <mxGeometry y="90" width="320" height="30" as="geometry" />
        </mxCell>
        <mxCell id="tAP2XFxNAOqR4f6Jvjxz-201" value="" style="shape=partialRectangle;overflow=hidden;connectable=0;fillColor=none;top=0;left=0;bottom=0;right=0;" vertex="1" parent="tAP2XFxNAOqR4f6Jvjxz-200">
          <mxGeometry width="30" height="30" as="geometry" />
        </mxCell>
        <mxCell id="tAP2XFxNAOqR4f6Jvjxz-202" value="`biz_serial` varchar(60) NOT NULL COMMENT &#39;业务流水&#39;" style="shape=partialRectangle;overflow=hidden;connectable=0;fillColor=none;top=0;left=0;bottom=0;right=0;align=left;spacingLeft=6;" vertex="1" parent="tAP2XFxNAOqR4f6Jvjxz-200">
          <mxGeometry x="30" width="290" height="30" as="geometry" />
        </mxCell>
        <mxCell id="tAP2XFxNAOqR4f6Jvjxz-203" value="" style="shape=partialRectangle;collapsible=0;dropTarget=0;pointerEvents=0;fillColor=none;points=[[0,0.5],[1,0.5]];portConstraint=eastwest;top=0;left=0;right=0;bottom=0;" vertex="1" parent="tAP2XFxNAOqR4f6Jvjxz-193">
          <mxGeometry y="120" width="320" height="30" as="geometry" />
        </mxCell>
        <mxCell id="tAP2XFxNAOqR4f6Jvjxz-204" value="" style="shape=partialRectangle;overflow=hidden;connectable=0;fillColor=none;top=0;left=0;bottom=0;right=0;" vertex="1" parent="tAP2XFxNAOqR4f6Jvjxz-203">
          <mxGeometry width="30" height="30" as="geometry" />
        </mxCell>
        <mxCell id="tAP2XFxNAOqR4f6Jvjxz-205" value="`exec_status` varchar(10) NOT NULL COMMENT &#39;执行状态&#39;" style="shape=partialRectangle;overflow=hidden;connectable=0;fillColor=none;top=0;left=0;bottom=0;right=0;align=left;spacingLeft=6;" vertex="1" parent="tAP2XFxNAOqR4f6Jvjxz-203">
          <mxGeometry x="30" width="290" height="30" as="geometry" />
        </mxCell>
        <mxCell id="tAP2XFxNAOqR4f6Jvjxz-206" value="" style="shape=partialRectangle;collapsible=0;dropTarget=0;pointerEvents=0;fillColor=none;points=[[0,0.5],[1,0.5]];portConstraint=eastwest;top=0;left=0;right=0;bottom=0;" vertex="1" parent="tAP2XFxNAOqR4f6Jvjxz-193">
          <mxGeometry y="150" width="320" height="30" as="geometry" />
        </mxCell>
        <mxCell id="tAP2XFxNAOqR4f6Jvjxz-207" value="" style="shape=partialRectangle;overflow=hidden;connectable=0;fillColor=none;top=0;left=0;bottom=0;right=0;" vertex="1" parent="tAP2XFxNAOqR4f6Jvjxz-206">
          <mxGeometry width="30" height="30" as="geometry" />
        </mxCell>
        <mxCell id="tAP2XFxNAOqR4f6Jvjxz-208" value="`name` varchar(60) NOT NULL COMMENT &#39;节点名称&#39;" style="shape=partialRectangle;overflow=hidden;connectable=0;fillColor=none;top=0;left=0;bottom=0;right=0;align=left;spacingLeft=6;" vertex="1" parent="tAP2XFxNAOqR4f6Jvjxz-206">
          <mxGeometry x="30" width="290" height="30" as="geometry" />
        </mxCell>
        <mxCell id="tAP2XFxNAOqR4f6Jvjxz-209" value="" style="shape=partialRectangle;collapsible=0;dropTarget=0;pointerEvents=0;fillColor=none;points=[[0,0.5],[1,0.5]];portConstraint=eastwest;top=0;left=0;right=0;bottom=0;" vertex="1" parent="tAP2XFxNAOqR4f6Jvjxz-193">
          <mxGeometry y="180" width="320" height="30" as="geometry" />
        </mxCell>
        <mxCell id="tAP2XFxNAOqR4f6Jvjxz-210" value="" style="shape=partialRectangle;overflow=hidden;connectable=0;fillColor=none;top=0;left=0;bottom=0;right=0;" vertex="1" parent="tAP2XFxNAOqR4f6Jvjxz-209">
          <mxGeometry width="30" height="30" as="geometry" />
        </mxCell>
        <mxCell id="tAP2XFxNAOqR4f6Jvjxz-211" value="`bean_name` varchar(250) NOT NULL COMMENT &#39;任务处理类名&#39;" style="shape=partialRectangle;overflow=hidden;connectable=0;fillColor=none;top=0;left=0;bottom=0;right=0;align=left;spacingLeft=6;" vertex="1" parent="tAP2XFxNAOqR4f6Jvjxz-209">
          <mxGeometry x="30" width="290" height="30" as="geometry" />
        </mxCell>
        <mxCell id="tAP2XFxNAOqR4f6Jvjxz-212" value="" style="shape=partialRectangle;collapsible=0;dropTarget=0;pointerEvents=0;fillColor=none;points=[[0,0.5],[1,0.5]];portConstraint=eastwest;top=0;left=0;right=0;bottom=0;" vertex="1" parent="tAP2XFxNAOqR4f6Jvjxz-193">
          <mxGeometry y="210" width="320" height="30" as="geometry" />
        </mxCell>
        <mxCell id="tAP2XFxNAOqR4f6Jvjxz-213" value="" style="shape=partialRectangle;overflow=hidden;connectable=0;fillColor=none;top=0;left=0;bottom=0;right=0;" vertex="1" parent="tAP2XFxNAOqR4f6Jvjxz-212">
          <mxGeometry width="30" height="30" as="geometry" />
        </mxCell>
        <mxCell id="tAP2XFxNAOqR4f6Jvjxz-214" value="`facts` json DEFAULT NULL COMMENT &#39;输入项&#39;" style="shape=partialRectangle;overflow=hidden;connectable=0;fillColor=none;top=0;left=0;bottom=0;right=0;align=left;spacingLeft=6;" vertex="1" parent="tAP2XFxNAOqR4f6Jvjxz-212">
          <mxGeometry x="30" width="290" height="30" as="geometry" />
        </mxCell>
        <mxCell id="tAP2XFxNAOqR4f6Jvjxz-215" value="" style="shape=partialRectangle;collapsible=0;dropTarget=0;pointerEvents=0;fillColor=none;points=[[0,0.5],[1,0.5]];portConstraint=eastwest;top=0;left=0;right=0;bottom=0;" vertex="1" parent="tAP2XFxNAOqR4f6Jvjxz-193">
          <mxGeometry y="240" width="320" height="30" as="geometry" />
        </mxCell>
        <mxCell id="tAP2XFxNAOqR4f6Jvjxz-216" value="" style="shape=partialRectangle;overflow=hidden;connectable=0;fillColor=none;top=0;left=0;bottom=0;right=0;" vertex="1" parent="tAP2XFxNAOqR4f6Jvjxz-215">
          <mxGeometry width="30" height="30" as="geometry" />
        </mxCell>
        <mxCell id="tAP2XFxNAOqR4f6Jvjxz-217" value="`param` json DEFAULT NULL COMMENT &#39;任务处理参数&#39;" style="shape=partialRectangle;overflow=hidden;connectable=0;fillColor=none;top=0;left=0;bottom=0;right=0;align=left;spacingLeft=6;" vertex="1" parent="tAP2XFxNAOqR4f6Jvjxz-215">
          <mxGeometry x="30" width="290" height="30" as="geometry" />
        </mxCell>
        <mxCell id="tAP2XFxNAOqR4f6Jvjxz-218" value="" style="shape=partialRectangle;collapsible=0;dropTarget=0;pointerEvents=0;fillColor=none;points=[[0,0.5],[1,0.5]];portConstraint=eastwest;top=0;left=0;right=0;bottom=0;" vertex="1" parent="tAP2XFxNAOqR4f6Jvjxz-193">
          <mxGeometry y="270" width="320" height="30" as="geometry" />
        </mxCell>
        <mxCell id="tAP2XFxNAOqR4f6Jvjxz-219" value="" style="shape=partialRectangle;overflow=hidden;connectable=0;fillColor=none;top=0;left=0;bottom=0;right=0;" vertex="1" parent="tAP2XFxNAOqR4f6Jvjxz-218">
          <mxGeometry width="30" height="30" as="geometry" />
        </mxCell>
        <mxCell id="tAP2XFxNAOqR4f6Jvjxz-220" value="`node` json DEFAULT NULL COMMENT &#39;当前节点信息&#39;" style="shape=partialRectangle;overflow=hidden;connectable=0;fillColor=none;top=0;left=0;bottom=0;right=0;align=left;spacingLeft=6;" vertex="1" parent="tAP2XFxNAOqR4f6Jvjxz-218">
          <mxGeometry x="30" width="290" height="30" as="geometry" />
        </mxCell>
        <mxCell id="tAP2XFxNAOqR4f6Jvjxz-221" value="" style="shape=partialRectangle;collapsible=0;dropTarget=0;pointerEvents=0;fillColor=none;points=[[0,0.5],[1,0.5]];portConstraint=eastwest;top=0;left=0;right=0;bottom=0;" vertex="1" parent="tAP2XFxNAOqR4f6Jvjxz-193">
          <mxGeometry y="300" width="320" height="30" as="geometry" />
        </mxCell>
        <mxCell id="tAP2XFxNAOqR4f6Jvjxz-222" value="" style="shape=partialRectangle;overflow=hidden;connectable=0;fillColor=none;top=0;left=0;bottom=0;right=0;" vertex="1" parent="tAP2XFxNAOqR4f6Jvjxz-221">
          <mxGeometry width="30" height="30" as="geometry" />
        </mxCell>
        <mxCell id="tAP2XFxNAOqR4f6Jvjxz-223" value="`order_number` int(11) DEFAULT NULL COMMENT &#39;序号&#39;" style="shape=partialRectangle;overflow=hidden;connectable=0;fillColor=none;top=0;left=0;bottom=0;right=0;align=left;spacingLeft=6;" vertex="1" parent="tAP2XFxNAOqR4f6Jvjxz-221">
          <mxGeometry x="30" width="290" height="30" as="geometry" />
        </mxCell>
        <mxCell id="tAP2XFxNAOqR4f6Jvjxz-224" value="" style="shape=partialRectangle;collapsible=0;dropTarget=0;pointerEvents=0;fillColor=none;points=[[0,0.5],[1,0.5]];portConstraint=eastwest;top=0;left=0;right=0;bottom=0;" vertex="1" parent="tAP2XFxNAOqR4f6Jvjxz-193">
          <mxGeometry y="330" width="320" height="30" as="geometry" />
        </mxCell>
        <mxCell id="tAP2XFxNAOqR4f6Jvjxz-225" value="" style="shape=partialRectangle;overflow=hidden;connectable=0;fillColor=none;top=0;left=0;bottom=0;right=0;" vertex="1" parent="tAP2XFxNAOqR4f6Jvjxz-224">
          <mxGeometry width="30" height="30" as="geometry" />
        </mxCell>
        <mxCell id="tAP2XFxNAOqR4f6Jvjxz-226" value="`handled_times` int(11) NOT NULL DEFAULT &#39;0&#39; COMMENT &#39;已处理次数&#39;" style="shape=partialRectangle;overflow=hidden;connectable=0;fillColor=none;top=0;left=0;bottom=0;right=0;align=left;spacingLeft=6;" vertex="1" parent="tAP2XFxNAOqR4f6Jvjxz-224">
          <mxGeometry x="30" width="290" height="30" as="geometry" />
        </mxCell>
        <mxCell id="tAP2XFxNAOqR4f6Jvjxz-227" value="" style="shape=partialRectangle;collapsible=0;dropTarget=0;pointerEvents=0;fillColor=none;points=[[0,0.5],[1,0.5]];portConstraint=eastwest;top=0;left=0;right=0;bottom=0;" vertex="1" parent="tAP2XFxNAOqR4f6Jvjxz-193">
          <mxGeometry y="360" width="320" height="30" as="geometry" />
        </mxCell>
        <mxCell id="tAP2XFxNAOqR4f6Jvjxz-228" value="" style="shape=partialRectangle;overflow=hidden;connectable=0;fillColor=none;top=0;left=0;bottom=0;right=0;" vertex="1" parent="tAP2XFxNAOqR4f6Jvjxz-227">
          <mxGeometry width="30" height="30" as="geometry" />
        </mxCell>
        <mxCell id="tAP2XFxNAOqR4f6Jvjxz-229" value="`last_handle_msg` varchar(512) DEFAULT NULL COMMENT &#39;上次处理消息&#39;" style="shape=partialRectangle;overflow=hidden;connectable=0;fillColor=none;top=0;left=0;bottom=0;right=0;align=left;spacingLeft=6;" vertex="1" parent="tAP2XFxNAOqR4f6Jvjxz-227">
          <mxGeometry x="30" width="290" height="30" as="geometry" />
        </mxCell>
        <mxCell id="tAP2XFxNAOqR4f6Jvjxz-230" value="" style="shape=partialRectangle;collapsible=0;dropTarget=0;pointerEvents=0;fillColor=none;points=[[0,0.5],[1,0.5]];portConstraint=eastwest;top=0;left=0;right=0;bottom=0;" vertex="1" parent="tAP2XFxNAOqR4f6Jvjxz-193">
          <mxGeometry y="390" width="320" height="30" as="geometry" />
        </mxCell>
        <mxCell id="tAP2XFxNAOqR4f6Jvjxz-231" value="" style="shape=partialRectangle;overflow=hidden;connectable=0;fillColor=none;top=0;left=0;bottom=0;right=0;" vertex="1" parent="tAP2XFxNAOqR4f6Jvjxz-230">
          <mxGeometry width="30" height="30" as="geometry" />
        </mxCell>
        <mxCell id="tAP2XFxNAOqR4f6Jvjxz-232" value="`created_at` datetime NOT NULL DEFAULT CURRENT_TIMESTAMP COMMENT &#39;创建时间&#39;" style="shape=partialRectangle;overflow=hidden;connectable=0;fillColor=none;top=0;left=0;bottom=0;right=0;align=left;spacingLeft=6;" vertex="1" parent="tAP2XFxNAOqR4f6Jvjxz-230">
          <mxGeometry x="30" width="290" height="30" as="geometry" />
        </mxCell>
        <mxCell id="tAP2XFxNAOqR4f6Jvjxz-233" value="" style="shape=partialRectangle;collapsible=0;dropTarget=0;pointerEvents=0;fillColor=none;points=[[0,0.5],[1,0.5]];portConstraint=eastwest;top=0;left=0;right=0;bottom=0;" vertex="1" parent="tAP2XFxNAOqR4f6Jvjxz-193">
          <mxGeometry y="420" width="320" height="30" as="geometry" />
        </mxCell>
        <mxCell id="tAP2XFxNAOqR4f6Jvjxz-234" value="" style="shape=partialRectangle;overflow=hidden;connectable=0;fillColor=none;top=0;left=0;bottom=0;right=0;" vertex="1" parent="tAP2XFxNAOqR4f6Jvjxz-233">
          <mxGeometry width="30" height="30" as="geometry" />
        </mxCell>
        <mxCell id="tAP2XFxNAOqR4f6Jvjxz-235" value="`updated_at` datetime NOT NULL DEFAULT CURRENT_TIMESTAMP ON UPDATE CURRENT_TIMESTAMP COMMENT &#39;更新时间&#39;" style="shape=partialRectangle;overflow=hidden;connectable=0;fillColor=none;top=0;left=0;bottom=0;right=0;align=left;spacingLeft=6;" vertex="1" parent="tAP2XFxNAOqR4f6Jvjxz-233">
          <mxGeometry x="30" width="290" height="30" as="geometry" />
        </mxCell>
        <mxCell id="tAP2XFxNAOqR4f6Jvjxz-236" value="" style="shape=partialRectangle;collapsible=0;dropTarget=0;pointerEvents=0;fillColor=none;points=[[0,0.5],[1,0.5]];portConstraint=eastwest;top=0;left=0;right=0;bottom=0;" vertex="1" parent="tAP2XFxNAOqR4f6Jvjxz-193">
          <mxGeometry y="450" width="320" height="30" as="geometry" />
        </mxCell>
        <mxCell id="tAP2XFxNAOqR4f6Jvjxz-237" value="" style="shape=partialRectangle;overflow=hidden;connectable=0;fillColor=none;top=0;left=0;bottom=0;right=0;" vertex="1" parent="tAP2XFxNAOqR4f6Jvjxz-236">
          <mxGeometry width="30" height="30" as="geometry" />
        </mxCell>
        <mxCell id="tAP2XFxNAOqR4f6Jvjxz-238" value="KEY `idx_biz_serial` (`biz_serial`)" style="shape=partialRectangle;overflow=hidden;connectable=0;fillColor=none;top=0;left=0;bottom=0;right=0;align=left;spacingLeft=6;" vertex="1" parent="tAP2XFxNAOqR4f6Jvjxz-236">
          <mxGeometry x="30" width="290" height="30" as="geometry" />
        </mxCell>
        <mxCell id="tAP2XFxNAOqR4f6Jvjxz-239" value="" style="shape=partialRectangle;collapsible=0;dropTarget=0;pointerEvents=0;fillColor=none;points=[[0,0.5],[1,0.5]];portConstraint=eastwest;top=0;left=0;right=0;bottom=0;" vertex="1" parent="tAP2XFxNAOqR4f6Jvjxz-193">
          <mxGeometry y="480" width="320" height="30" as="geometry" />
        </mxCell>
        <mxCell id="tAP2XFxNAOqR4f6Jvjxz-240" value="" style="shape=partialRectangle;overflow=hidden;connectable=0;fillColor=none;top=0;left=0;bottom=0;right=0;" vertex="1" parent="tAP2XFxNAOqR4f6Jvjxz-239">
          <mxGeometry width="30" height="30" as="geometry" />
        </mxCell>
        <mxCell id="tAP2XFxNAOqR4f6Jvjxz-241" value="KEY `idx_exec_status` (`exec_status`)" style="shape=partialRectangle;overflow=hidden;connectable=0;fillColor=none;top=0;left=0;bottom=0;right=0;align=left;spacingLeft=6;" vertex="1" parent="tAP2XFxNAOqR4f6Jvjxz-239">
          <mxGeometry x="30" width="290" height="30" as="geometry" />
        </mxCell>
        <mxCell id="tAP2XFxNAOqR4f6Jvjxz-242" value="" style="shape=partialRectangle;collapsible=0;dropTarget=0;pointerEvents=0;fillColor=none;points=[[0,0.5],[1,0.5]];portConstraint=eastwest;top=0;left=0;right=0;bottom=0;" vertex="1" parent="tAP2XFxNAOqR4f6Jvjxz-193">
          <mxGeometry y="510" width="320" height="30" as="geometry" />
        </mxCell>
        <mxCell id="tAP2XFxNAOqR4f6Jvjxz-243" value="" style="shape=partialRectangle;overflow=hidden;connectable=0;fillColor=none;top=0;left=0;bottom=0;right=0;" vertex="1" parent="tAP2XFxNAOqR4f6Jvjxz-242">
          <mxGeometry width="30" height="30" as="geometry" />
        </mxCell>
        <mxCell id="tAP2XFxNAOqR4f6Jvjxz-244" value="KEY `idx_updated_at` (`updated_at`)" style="shape=partialRectangle;overflow=hidden;connectable=0;fillColor=none;top=0;left=0;bottom=0;right=0;align=left;spacingLeft=6;" vertex="1" parent="tAP2XFxNAOqR4f6Jvjxz-242">
          <mxGeometry x="30" width="290" height="30" as="geometry" />
        </mxCell>
        <mxCell id="tAP2XFxNAOqR4f6Jvjxz-245" value="" style="shape=partialRectangle;collapsible=0;dropTarget=0;pointerEvents=0;fillColor=none;points=[[0,0.5],[1,0.5]];portConstraint=eastwest;top=0;left=0;right=0;bottom=0;" vertex="1" parent="tAP2XFxNAOqR4f6Jvjxz-193">
          <mxGeometry y="540" width="320" height="30" as="geometry" />
        </mxCell>
        <mxCell id="tAP2XFxNAOqR4f6Jvjxz-246" value="" style="shape=partialRectangle;overflow=hidden;connectable=0;fillColor=none;top=0;left=0;bottom=0;right=0;" vertex="1" parent="tAP2XFxNAOqR4f6Jvjxz-245">
          <mxGeometry width="30" height="30" as="geometry" />
        </mxCell>
        <mxCell id="tAP2XFxNAOqR4f6Jvjxz-247" value="KEY `idx_create_at` (`created_at`)" style="shape=partialRectangle;overflow=hidden;connectable=0;fillColor=none;top=0;left=0;bottom=0;right=0;align=left;spacingLeft=6;" vertex="1" parent="tAP2XFxNAOqR4f6Jvjxz-245">
          <mxGeometry x="30" width="290" height="30" as="geometry" />
        </mxCell>
        <mxCell id="tAP2XFxNAOqR4f6Jvjxz-253" value="" style="edgeStyle=entityRelationEdgeStyle;fontSize=12;html=1;endArrow=ERzeroToMany;endFill=1;exitX=1;exitY=0.5;exitDx=0;exitDy=0;" edge="1" parent="1" source="tAP2XFxNAOqR4f6Jvjxz-11">
          <mxGeometry width="100" height="100" relative="1" as="geometry">
            <mxPoint x="-60" y="300" as="sourcePoint" />
            <mxPoint x="40" y="200" as="targetPoint" />
          </mxGeometry>
        </mxCell>
      </root>
    </mxGraphModel>
  </diagram>
</mxfile>
